<svg width="124" height="124" viewBox="0 0 124 124" fill="none" xmlns="http://www.w3.org/2000/svg">
<path d="M124 62C124 96.2417 96.2417 124 62 124C27.7583 124 0 96.2417 0 62C0 27.7583 27.7583 0 62 0C96.2417 0 124 27.7583 124 62ZM9.87737 62C9.87737 90.7865 33.2135 114.123 62 114.123C90.7865 114.123 114.123 90.7865 114.123 62C114.123 33.2135 90.7865 9.87737 62 9.87737C33.2135 9.87737 9.87737 33.2135 9.87737 62Z" fill="#E2E8F0"/>
<path d="M62 0C74.2624 1.46228e-07 86.2495 3.63624 96.4454 10.4489C106.641 17.2615 114.588 26.9446 119.281 38.2736C123.973 49.6026 125.201 62.0688 122.809 74.0956C120.416 86.1224 114.511 97.1698 105.841 105.841C97.1698 114.511 86.1224 120.416 74.0956 122.809C62.0688 125.201 49.6026 123.973 38.2736 119.281C26.9446 114.588 17.2615 106.641 10.4489 96.4454C3.63624 86.2495 -2.92456e-07 74.2624 0 62H9.87737C9.87737 72.3089 12.9343 82.3863 18.6616 90.9578C24.3889 99.5293 32.5294 106.21 42.0535 110.155C51.5777 114.1 62.0578 115.132 72.1686 113.121C82.2794 111.11 91.5668 106.146 98.8563 98.8563C106.146 91.5668 111.11 82.2794 113.121 72.1686C115.132 62.0578 114.1 51.5777 110.155 42.0535C106.21 32.5294 99.5293 24.3889 90.9578 18.6616C82.3863 12.9343 72.3089 9.87737 62 9.87737V0Z" fill="#D4009B"/>
</svg>
