<svg width="533" height="214" viewBox="0 0 533 214" fill="none" xmlns="http://www.w3.org/2000/svg">
<rect width="529" height="214" fill="white"/>
<path d="M14.0799 21.1193C13.5799 21.1193 13.1296 21.0199 12.729 20.821C12.3285 20.6222 12.0075 20.3494 11.766 20.0028C11.5245 19.6562 11.3924 19.2614 11.3697 18.8182H12.3924C12.4322 19.2131 12.6112 19.5398 12.9293 19.7983C13.2504 20.054 13.6339 20.1818 14.0799 20.1818C14.4379 20.1818 14.756 20.098 15.0344 19.9304C15.3157 19.7628 15.5359 19.5327 15.695 19.2401C15.8569 18.9446 15.9379 18.6108 15.9379 18.2386C15.9379 17.858 15.854 17.5185 15.6864 17.2202C15.5217 16.919 15.2944 16.6818 15.0046 16.5085C14.7148 16.3352 14.3839 16.2472 14.0117 16.2443C13.7447 16.2415 13.4705 16.2827 13.1893 16.3679C12.908 16.4503 12.6765 16.5568 12.4947 16.6875L11.506 16.5682L12.0344 12.2727H16.5685V13.2102H12.9208L12.614 15.7841H12.6651C12.8441 15.642 13.0685 15.5241 13.3384 15.4304C13.6083 15.3366 13.8896 15.2898 14.1822 15.2898C14.7163 15.2898 15.1921 15.4176 15.6097 15.6733C16.0302 15.9261 16.3597 16.2727 16.5984 16.7131C16.8398 17.1534 16.9606 17.6562 16.9606 18.2216C16.9606 18.7784 16.8356 19.2756 16.5856 19.7131C16.3384 20.1477 15.9975 20.4915 15.5629 20.7443C15.1282 20.9943 14.6339 21.1193 14.0799 21.1193ZM21.5 21.1193C20.858 21.1193 20.3111 20.9446 19.8594 20.5952C19.4077 20.2429 19.0625 19.733 18.8239 19.0653C18.5852 18.3949 18.4659 17.5852 18.4659 16.6364C18.4659 15.6932 18.5852 14.8878 18.8239 14.2202C19.0653 13.5497 19.4119 13.0384 19.8636 12.6861C20.3182 12.331 20.8636 12.1534 21.5 12.1534C22.1364 12.1534 22.6804 12.331 23.1321 12.6861C23.5866 13.0384 23.9332 13.5497 24.1719 14.2202C24.4134 14.8878 24.5341 15.6932 24.5341 16.6364C24.5341 17.5852 24.4148 18.3949 24.1761 19.0653C23.9375 19.733 23.5923 20.2429 23.1406 20.5952C22.6889 20.9446 22.142 21.1193 21.5 21.1193ZM21.5 20.1818C22.1364 20.1818 22.6307 19.875 22.983 19.2614C23.3352 18.6477 23.5114 17.7727 23.5114 16.6364C23.5114 15.8807 23.4304 15.2372 23.2685 14.706C23.1094 14.1747 22.8793 13.7699 22.5781 13.4915C22.2798 13.2131 21.9205 13.0739 21.5 13.0739C20.8693 13.0739 20.3764 13.3849 20.0213 14.0071C19.6662 14.6264 19.4886 15.5028 19.4886 16.6364C19.4886 17.392 19.5682 18.0341 19.7273 18.5625C19.8864 19.0909 20.1151 19.4929 20.4134 19.7685C20.7145 20.044 21.0767 20.1818 21.5 20.1818ZM30.6023 19.3636V18.9034C30.6023 18.5852 30.6676 18.294 30.7983 18.0298C30.9318 17.7628 31.125 17.5497 31.3778 17.3906C31.6335 17.2287 31.9432 17.1477 32.3068 17.1477C32.6761 17.1477 32.9858 17.2287 33.2358 17.3906C33.4858 17.5497 33.6747 17.7628 33.8026 18.0298C33.9304 18.294 33.9943 18.5852 33.9943 18.9034V19.3636C33.9943 19.6818 33.929 19.9744 33.7983 20.2415C33.6705 20.5057 33.4801 20.7187 33.2273 20.8807C32.9773 21.0398 32.6705 21.1193 32.3068 21.1193C31.9375 21.1193 31.6264 21.0398 31.3736 20.8807C31.1207 20.7187 30.929 20.5057 30.7983 20.2415C30.6676 19.9744 30.6023 19.6818 30.6023 19.3636ZM31.4716 18.9034V19.3636C31.4716 19.6278 31.5341 19.8651 31.6591 20.0753C31.7841 20.2827 32 20.3864 32.3068 20.3864C32.6051 20.3864 32.8153 20.2827 32.9375 20.0753C33.0625 19.8651 33.125 19.6278 33.125 19.3636V18.9034C33.125 18.6392 33.0653 18.4034 32.946 18.196C32.8267 17.9858 32.6136 17.8807 32.3068 17.8807C32.0085 17.8807 31.794 17.9858 31.6634 18.196C31.5355 18.4034 31.4716 18.6392 31.4716 18.9034ZM26.2557 14.3693V13.9091C26.2557 13.5909 26.321 13.2997 26.4517 13.0355C26.5852 12.7685 26.7784 12.5554 27.0312 12.3963C27.2869 12.2344 27.5966 12.1534 27.9602 12.1534C28.3295 12.1534 28.6392 12.2344 28.8892 12.3963C29.1392 12.5554 29.3281 12.7685 29.456 13.0355C29.5838 13.2997 29.6477 13.5909 29.6477 13.9091V14.3693C29.6477 14.6875 29.5824 14.9801 29.4517 15.2472C29.3239 15.5114 29.1335 15.7244 28.8807 15.8864C28.6307 16.0455 28.3239 16.125 27.9602 16.125C27.5909 16.125 27.2798 16.0455 27.027 15.8864C26.7741 15.7244 26.5824 15.5114 26.4517 15.2472C26.321 14.9801 26.2557 14.6875 26.2557 14.3693ZM27.125 13.9091V14.3693C27.125 14.6335 27.1875 14.8707 27.3125 15.081C27.4375 15.2884 27.6534 15.392 27.9602 15.392C28.2585 15.392 28.4688 15.2884 28.5909 15.081C28.7159 14.8707 28.7784 14.6335 28.7784 14.3693V13.9091C28.7784 13.6449 28.7188 13.4091 28.5994 13.2017C28.4801 12.9915 28.267 12.8864 27.9602 12.8864C27.6619 12.8864 27.4474 12.9915 27.3168 13.2017C27.1889 13.4091 27.125 13.6449 27.125 13.9091ZM26.5795 21L32.5795 12.2727H33.5511L27.5511 21H26.5795Z" fill="#334155"/>
<path d="M51 17H529" stroke="#DEE2E6"/>
<path d="M10.7496 53.2102V52.3409L14.5849 46.2727H15.2156V47.6193H14.7894L11.8917 52.2045V52.2727H17.0565V53.2102H10.7496ZM14.8576 55V52.946V52.5412V46.2727H15.8633V55H14.8576ZM21.5 55.1193C20.858 55.1193 20.3111 54.9446 19.8594 54.5952C19.4077 54.2429 19.0625 53.733 18.8239 53.0653C18.5852 52.3949 18.4659 51.5852 18.4659 50.6364C18.4659 49.6932 18.5852 48.8878 18.8239 48.2202C19.0653 47.5497 19.4119 47.0384 19.8636 46.6861C20.3182 46.331 20.8636 46.1534 21.5 46.1534C22.1364 46.1534 22.6804 46.331 23.1321 46.6861C23.5866 47.0384 23.9332 47.5497 24.1719 48.2202C24.4134 48.8878 24.5341 49.6932 24.5341 50.6364C24.5341 51.5852 24.4148 52.3949 24.1761 53.0653C23.9375 53.733 23.5923 54.2429 23.1406 54.5952C22.6889 54.9446 22.142 55.1193 21.5 55.1193ZM21.5 54.1818C22.1364 54.1818 22.6307 53.875 22.983 53.2614C23.3352 52.6477 23.5114 51.7727 23.5114 50.6364C23.5114 49.8807 23.4304 49.2372 23.2685 48.706C23.1094 48.1747 22.8793 47.7699 22.5781 47.4915C22.2798 47.2131 21.9205 47.0739 21.5 47.0739C20.8693 47.0739 20.3764 47.3849 20.0213 48.0071C19.6662 48.6264 19.4886 49.5028 19.4886 50.6364C19.4886 51.392 19.5682 52.0341 19.7273 52.5625C19.8864 53.0909 20.1151 53.4929 20.4134 53.7685C20.7145 54.044 21.0767 54.1818 21.5 54.1818ZM30.6023 53.3636V52.9034C30.6023 52.5852 30.6676 52.294 30.7983 52.0298C30.9318 51.7628 31.125 51.5497 31.3778 51.3906C31.6335 51.2287 31.9432 51.1477 32.3068 51.1477C32.6761 51.1477 32.9858 51.2287 33.2358 51.3906C33.4858 51.5497 33.6747 51.7628 33.8026 52.0298C33.9304 52.294 33.9943 52.5852 33.9943 52.9034V53.3636C33.9943 53.6818 33.929 53.9744 33.7983 54.2415C33.6705 54.5057 33.4801 54.7187 33.2273 54.8807C32.9773 55.0398 32.6705 55.1193 32.3068 55.1193C31.9375 55.1193 31.6264 55.0398 31.3736 54.8807C31.1207 54.7187 30.929 54.5057 30.7983 54.2415C30.6676 53.9744 30.6023 53.6818 30.6023 53.3636ZM31.4716 52.9034V53.3636C31.4716 53.6278 31.5341 53.8651 31.6591 54.0753C31.7841 54.2827 32 54.3864 32.3068 54.3864C32.6051 54.3864 32.8153 54.2827 32.9375 54.0753C33.0625 53.8651 33.125 53.6278 33.125 53.3636V52.9034C33.125 52.6392 33.0653 52.4034 32.946 52.196C32.8267 51.9858 32.6136 51.8807 32.3068 51.8807C32.0085 51.8807 31.794 51.9858 31.6634 52.196C31.5355 52.4034 31.4716 52.6392 31.4716 52.9034ZM26.2557 48.3693V47.9091C26.2557 47.5909 26.321 47.2997 26.4517 47.0355C26.5852 46.7685 26.7784 46.5554 27.0312 46.3963C27.2869 46.2344 27.5966 46.1534 27.9602 46.1534C28.3295 46.1534 28.6392 46.2344 28.8892 46.3963C29.1392 46.5554 29.3281 46.7685 29.456 47.0355C29.5838 47.2997 29.6477 47.5909 29.6477 47.9091V48.3693C29.6477 48.6875 29.5824 48.9801 29.4517 49.2472C29.3239 49.5114 29.1335 49.7244 28.8807 49.8864C28.6307 50.0455 28.3239 50.125 27.9602 50.125C27.5909 50.125 27.2798 50.0455 27.027 49.8864C26.7741 49.7244 26.5824 49.5114 26.4517 49.2472C26.321 48.9801 26.2557 48.6875 26.2557 48.3693ZM27.125 47.9091V48.3693C27.125 48.6335 27.1875 48.8707 27.3125 49.081C27.4375 49.2884 27.6534 49.392 27.9602 49.392C28.2585 49.392 28.4688 49.2884 28.5909 49.081C28.7159 48.8707 28.7784 48.6335 28.7784 48.3693V47.9091C28.7784 47.6449 28.7188 47.4091 28.5994 47.2017C28.4801 46.9915 28.267 46.8864 27.9602 46.8864C27.6619 46.8864 27.4474 46.9915 27.3168 47.2017C27.1889 47.4091 27.125 47.6449 27.125 47.9091ZM26.5795 55L32.5795 46.2727H33.5511L27.5511 55H26.5795Z" fill="#334155"/>
<path d="M51 51H529" stroke="#DEE2E6"/>
<path d="M13.9616 89.1193C13.3991 89.1193 12.8977 89.0227 12.4574 88.8295C12.0199 88.6364 11.6719 88.3679 11.4134 88.0241C11.1577 87.6776 11.0185 87.2756 10.9957 86.8182H12.0696C12.0923 87.0994 12.1889 87.3423 12.3594 87.5469C12.5298 87.7486 12.7528 87.9048 13.0284 88.0156C13.304 88.1264 13.6094 88.1818 13.9446 88.1818C14.3196 88.1818 14.652 88.1165 14.9418 87.9858C15.2315 87.8551 15.4588 87.6733 15.6236 87.4403C15.7884 87.2074 15.8707 86.9375 15.8707 86.6307C15.8707 86.3097 15.7912 86.027 15.6321 85.7827C15.473 85.5355 15.2401 85.3423 14.9332 85.2031C14.6264 85.0639 14.2514 84.9943 13.8082 84.9943H13.1094V84.0568H13.8082C14.1548 84.0568 14.4588 83.9943 14.7202 83.8693C14.9844 83.7443 15.1903 83.5682 15.3381 83.3409C15.4886 83.1136 15.5639 82.8466 15.5639 82.5398C15.5639 82.2443 15.4986 81.9872 15.3679 81.7685C15.2372 81.5497 15.0526 81.3793 14.8139 81.2571C14.5781 81.1349 14.2997 81.0739 13.9787 81.0739C13.6776 81.0739 13.3935 81.1293 13.1264 81.2401C12.8622 81.348 12.6463 81.5057 12.4787 81.7131C12.3111 81.9176 12.2202 82.1648 12.206 82.4545H11.1832C11.2003 81.9972 11.3381 81.5966 11.5966 81.2528C11.8551 80.9062 12.1932 80.6364 12.6108 80.4432C13.0313 80.25 13.4929 80.1534 13.9957 80.1534C14.5355 80.1534 14.9986 80.2628 15.3849 80.4815C15.7713 80.6974 16.0682 80.983 16.2756 81.3381C16.483 81.6932 16.5866 82.0767 16.5866 82.4886C16.5866 82.9801 16.4574 83.3991 16.1989 83.7457C15.9432 84.0923 15.5952 84.3324 15.1548 84.4659V84.5341C15.706 84.625 16.1364 84.8594 16.446 85.2372C16.7557 85.6122 16.9105 86.0767 16.9105 86.6307C16.9105 87.1051 16.7813 87.5312 16.5227 87.9091C16.267 88.2841 15.9176 88.5795 15.4744 88.7955C15.0313 89.0114 14.527 89.1193 13.9616 89.1193ZM21.5 89.1193C20.858 89.1193 20.3111 88.9446 19.8594 88.5952C19.4077 88.2429 19.0625 87.733 18.8239 87.0653C18.5852 86.3949 18.4659 85.5852 18.4659 84.6364C18.4659 83.6932 18.5852 82.8878 18.8239 82.2202C19.0653 81.5497 19.4119 81.0384 19.8636 80.6861C20.3182 80.331 20.8636 80.1534 21.5 80.1534C22.1364 80.1534 22.6804 80.331 23.1321 80.6861C23.5866 81.0384 23.9332 81.5497 24.1719 82.2202C24.4134 82.8878 24.5341 83.6932 24.5341 84.6364C24.5341 85.5852 24.4148 86.3949 24.1761 87.0653C23.9375 87.733 23.5923 88.2429 23.1406 88.5952C22.6889 88.9446 22.142 89.1193 21.5 89.1193ZM21.5 88.1818C22.1364 88.1818 22.6307 87.875 22.983 87.2614C23.3352 86.6477 23.5114 85.7727 23.5114 84.6364C23.5114 83.8807 23.4304 83.2372 23.2685 82.706C23.1094 82.1747 22.8793 81.7699 22.5781 81.4915C22.2798 81.2131 21.9205 81.0739 21.5 81.0739C20.8693 81.0739 20.3764 81.3849 20.0213 82.0071C19.6662 82.6264 19.4886 83.5028 19.4886 84.6364C19.4886 85.392 19.5682 86.0341 19.7273 86.5625C19.8864 87.0909 20.1151 87.4929 20.4134 87.7685C20.7145 88.044 21.0767 88.1818 21.5 88.1818ZM30.6023 87.3636V86.9034C30.6023 86.5852 30.6676 86.294 30.7983 86.0298C30.9318 85.7628 31.125 85.5497 31.3778 85.3906C31.6335 85.2287 31.9432 85.1477 32.3068 85.1477C32.6761 85.1477 32.9858 85.2287 33.2358 85.3906C33.4858 85.5497 33.6747 85.7628 33.8026 86.0298C33.9304 86.294 33.9943 86.5852 33.9943 86.9034V87.3636C33.9943 87.6818 33.929 87.9744 33.7983 88.2415C33.6705 88.5057 33.4801 88.7187 33.2273 88.8807C32.9773 89.0398 32.6705 89.1193 32.3068 89.1193C31.9375 89.1193 31.6264 89.0398 31.3736 88.8807C31.1207 88.7187 30.929 88.5057 30.7983 88.2415C30.6676 87.9744 30.6023 87.6818 30.6023 87.3636ZM31.4716 86.9034V87.3636C31.4716 87.6278 31.5341 87.8651 31.6591 88.0753C31.7841 88.2827 32 88.3864 32.3068 88.3864C32.6051 88.3864 32.8153 88.2827 32.9375 88.0753C33.0625 87.8651 33.125 87.6278 33.125 87.3636V86.9034C33.125 86.6392 33.0653 86.4034 32.946 86.196C32.8267 85.9858 32.6136 85.8807 32.3068 85.8807C32.0085 85.8807 31.794 85.9858 31.6634 86.196C31.5355 86.4034 31.4716 86.6392 31.4716 86.9034ZM26.2557 82.3693V81.9091C26.2557 81.5909 26.321 81.2997 26.4517 81.0355C26.5852 80.7685 26.7784 80.5554 27.0312 80.3963C27.2869 80.2344 27.5966 80.1534 27.9602 80.1534C28.3295 80.1534 28.6392 80.2344 28.8892 80.3963C29.1392 80.5554 29.3281 80.7685 29.456 81.0355C29.5838 81.2997 29.6477 81.5909 29.6477 81.9091V82.3693C29.6477 82.6875 29.5824 82.9801 29.4517 83.2472C29.3239 83.5114 29.1335 83.7244 28.8807 83.8864C28.6307 84.0455 28.3239 84.125 27.9602 84.125C27.5909 84.125 27.2798 84.0455 27.027 83.8864C26.7741 83.7244 26.5824 83.5114 26.4517 83.2472C26.321 82.9801 26.2557 82.6875 26.2557 82.3693ZM27.125 81.9091V82.3693C27.125 82.6335 27.1875 82.8707 27.3125 83.081C27.4375 83.2884 27.6534 83.392 27.9602 83.392C28.2585 83.392 28.4688 83.2884 28.5909 83.081C28.7159 82.8707 28.7784 82.6335 28.7784 82.3693V81.9091C28.7784 81.6449 28.7188 81.4091 28.5994 81.2017C28.4801 80.9915 28.267 80.8864 27.9602 80.8864C27.6619 80.8864 27.4474 80.9915 27.3168 81.2017C27.1889 81.4091 27.125 81.6449 27.125 81.9091ZM26.5795 89L32.5795 80.2727H33.5511L27.5511 89H26.5795Z" fill="#334155"/>
<path d="M51 85H529" stroke="#DEE2E6"/>
<path d="M11.3878 123V122.233L14.2685 119.08C14.6065 118.71 14.8849 118.389 15.1037 118.116C15.3224 117.841 15.4844 117.582 15.5895 117.341C15.6974 117.097 15.7514 116.841 15.7514 116.574C15.7514 116.267 15.6776 116.001 15.5298 115.777C15.3849 115.553 15.1861 115.379 14.9332 115.257C14.6804 115.135 14.3963 115.074 14.081 115.074C13.7457 115.074 13.4531 115.143 13.2031 115.283C12.956 115.419 12.7642 115.611 12.6278 115.858C12.4943 116.105 12.4276 116.395 12.4276 116.727H11.4219C11.4219 116.216 11.5398 115.767 11.7756 115.381C12.0114 114.994 12.3324 114.693 12.7386 114.477C13.1477 114.261 13.6065 114.153 14.1151 114.153C14.6264 114.153 15.0795 114.261 15.4744 114.477C15.8693 114.693 16.179 114.984 16.4034 115.351C16.6278 115.717 16.7401 116.125 16.7401 116.574C16.7401 116.895 16.6818 117.209 16.5653 117.516C16.4517 117.82 16.2528 118.159 15.9688 118.534C15.6875 118.906 15.2969 119.361 14.7969 119.898L12.8366 121.994V122.062H16.8935V123H11.3878ZM21.5 123.119C20.858 123.119 20.3111 122.945 19.8594 122.595C19.4077 122.243 19.0625 121.733 18.8239 121.065C18.5852 120.395 18.4659 119.585 18.4659 118.636C18.4659 117.693 18.5852 116.888 18.8239 116.22C19.0653 115.55 19.4119 115.038 19.8636 114.686C20.3182 114.331 20.8636 114.153 21.5 114.153C22.1364 114.153 22.6804 114.331 23.1321 114.686C23.5866 115.038 23.9332 115.55 24.1719 116.22C24.4134 116.888 24.5341 117.693 24.5341 118.636C24.5341 119.585 24.4148 120.395 24.1761 121.065C23.9375 121.733 23.5923 122.243 23.1406 122.595C22.6889 122.945 22.142 123.119 21.5 123.119ZM21.5 122.182C22.1364 122.182 22.6307 121.875 22.983 121.261C23.3352 120.648 23.5114 119.773 23.5114 118.636C23.5114 117.881 23.4304 117.237 23.2685 116.706C23.1094 116.175 22.8793 115.77 22.5781 115.491C22.2798 115.213 21.9205 115.074 21.5 115.074C20.8693 115.074 20.3764 115.385 20.0213 116.007C19.6662 116.626 19.4886 117.503 19.4886 118.636C19.4886 119.392 19.5682 120.034 19.7273 120.562C19.8864 121.091 20.1151 121.493 20.4134 121.768C20.7145 122.044 21.0767 122.182 21.5 122.182ZM30.6023 121.364V120.903C30.6023 120.585 30.6676 120.294 30.7983 120.03C30.9318 119.763 31.125 119.55 31.3778 119.391C31.6335 119.229 31.9432 119.148 32.3068 119.148C32.6761 119.148 32.9858 119.229 33.2358 119.391C33.4858 119.55 33.6747 119.763 33.8026 120.03C33.9304 120.294 33.9943 120.585 33.9943 120.903V121.364C33.9943 121.682 33.929 121.974 33.7983 122.241C33.6705 122.506 33.4801 122.719 33.2273 122.881C32.9773 123.04 32.6705 123.119 32.3068 123.119C31.9375 123.119 31.6264 123.04 31.3736 122.881C31.1207 122.719 30.929 122.506 30.7983 122.241C30.6676 121.974 30.6023 121.682 30.6023 121.364ZM31.4716 120.903V121.364C31.4716 121.628 31.5341 121.865 31.6591 122.075C31.7841 122.283 32 122.386 32.3068 122.386C32.6051 122.386 32.8153 122.283 32.9375 122.075C33.0625 121.865 33.125 121.628 33.125 121.364V120.903C33.125 120.639 33.0653 120.403 32.946 120.196C32.8267 119.986 32.6136 119.881 32.3068 119.881C32.0085 119.881 31.794 119.986 31.6634 120.196C31.5355 120.403 31.4716 120.639 31.4716 120.903ZM26.2557 116.369V115.909C26.2557 115.591 26.321 115.3 26.4517 115.036C26.5852 114.768 26.7784 114.555 27.0312 114.396C27.2869 114.234 27.5966 114.153 27.9602 114.153C28.3295 114.153 28.6392 114.234 28.8892 114.396C29.1392 114.555 29.3281 114.768 29.456 115.036C29.5838 115.3 29.6477 115.591 29.6477 115.909V116.369C29.6477 116.687 29.5824 116.98 29.4517 117.247C29.3239 117.511 29.1335 117.724 28.8807 117.886C28.6307 118.045 28.3239 118.125 27.9602 118.125C27.5909 118.125 27.2798 118.045 27.027 117.886C26.7741 117.724 26.5824 117.511 26.4517 117.247C26.321 116.98 26.2557 116.687 26.2557 116.369ZM27.125 115.909V116.369C27.125 116.634 27.1875 116.871 27.3125 117.081C27.4375 117.288 27.6534 117.392 27.9602 117.392C28.2585 117.392 28.4688 117.288 28.5909 117.081C28.7159 116.871 28.7784 116.634 28.7784 116.369V115.909C28.7784 115.645 28.7188 115.409 28.5994 115.202C28.4801 114.991 28.267 114.886 27.9602 114.886C27.6619 114.886 27.4474 114.991 27.3168 115.202C27.1889 115.409 27.125 115.645 27.125 115.909ZM26.5795 123L32.5795 114.273H33.5511L27.5511 123H26.5795Z" fill="#334155"/>
<path d="M51 119H529" stroke="#DEE2E6"/>
<path d="M16.1435 148.273V157H15.0866V149.381H15.0355L12.9048 150.795V149.722L15.0866 148.273H16.1435ZM21.5 157.119C20.858 157.119 20.3111 156.945 19.8594 156.595C19.4077 156.243 19.0625 155.733 18.8239 155.065C18.5852 154.395 18.4659 153.585 18.4659 152.636C18.4659 151.693 18.5852 150.888 18.8239 150.22C19.0653 149.55 19.4119 149.038 19.8636 148.686C20.3182 148.331 20.8636 148.153 21.5 148.153C22.1364 148.153 22.6804 148.331 23.1321 148.686C23.5866 149.038 23.9332 149.55 24.1719 150.22C24.4134 150.888 24.5341 151.693 24.5341 152.636C24.5341 153.585 24.4148 154.395 24.1761 155.065C23.9375 155.733 23.5923 156.243 23.1406 156.595C22.6889 156.945 22.142 157.119 21.5 157.119ZM21.5 156.182C22.1364 156.182 22.6307 155.875 22.983 155.261C23.3352 154.648 23.5114 153.773 23.5114 152.636C23.5114 151.881 23.4304 151.237 23.2685 150.706C23.1094 150.175 22.8793 149.77 22.5781 149.491C22.2798 149.213 21.9205 149.074 21.5 149.074C20.8693 149.074 20.3764 149.385 20.0213 150.007C19.6662 150.626 19.4886 151.503 19.4886 152.636C19.4886 153.392 19.5682 154.034 19.7273 154.562C19.8864 155.091 20.1151 155.493 20.4134 155.768C20.7145 156.044 21.0767 156.182 21.5 156.182ZM30.6023 155.364V154.903C30.6023 154.585 30.6676 154.294 30.7983 154.03C30.9318 153.763 31.125 153.55 31.3778 153.391C31.6335 153.229 31.9432 153.148 32.3068 153.148C32.6761 153.148 32.9858 153.229 33.2358 153.391C33.4858 153.55 33.6747 153.763 33.8026 154.03C33.9304 154.294 33.9943 154.585 33.9943 154.903V155.364C33.9943 155.682 33.929 155.974 33.7983 156.241C33.6705 156.506 33.4801 156.719 33.2273 156.881C32.9773 157.04 32.6705 157.119 32.3068 157.119C31.9375 157.119 31.6264 157.04 31.3736 156.881C31.1207 156.719 30.929 156.506 30.7983 156.241C30.6676 155.974 30.6023 155.682 30.6023 155.364ZM31.4716 154.903V155.364C31.4716 155.628 31.5341 155.865 31.6591 156.075C31.7841 156.283 32 156.386 32.3068 156.386C32.6051 156.386 32.8153 156.283 32.9375 156.075C33.0625 155.865 33.125 155.628 33.125 155.364V154.903C33.125 154.639 33.0653 154.403 32.946 154.196C32.8267 153.986 32.6136 153.881 32.3068 153.881C32.0085 153.881 31.794 153.986 31.6634 154.196C31.5355 154.403 31.4716 154.639 31.4716 154.903ZM26.2557 150.369V149.909C26.2557 149.591 26.321 149.3 26.4517 149.036C26.5852 148.768 26.7784 148.555 27.0312 148.396C27.2869 148.234 27.5966 148.153 27.9602 148.153C28.3295 148.153 28.6392 148.234 28.8892 148.396C29.1392 148.555 29.3281 148.768 29.456 149.036C29.5838 149.3 29.6477 149.591 29.6477 149.909V150.369C29.6477 150.687 29.5824 150.98 29.4517 151.247C29.3239 151.511 29.1335 151.724 28.8807 151.886C28.6307 152.045 28.3239 152.125 27.9602 152.125C27.5909 152.125 27.2798 152.045 27.027 151.886C26.7741 151.724 26.5824 151.511 26.4517 151.247C26.321 150.98 26.2557 150.687 26.2557 150.369ZM27.125 149.909V150.369C27.125 150.634 27.1875 150.871 27.3125 151.081C27.4375 151.288 27.6534 151.392 27.9602 151.392C28.2585 151.392 28.4688 151.288 28.5909 151.081C28.7159 150.871 28.7784 150.634 28.7784 150.369V149.909C28.7784 149.645 28.7188 149.409 28.5994 149.202C28.4801 148.991 28.267 148.886 27.9602 148.886C27.6619 148.886 27.4474 148.991 27.3168 149.202C27.1889 149.409 27.125 149.645 27.125 149.909ZM26.5795 157L32.5795 148.273H33.5511L27.5511 157H26.5795Z" fill="#334155"/>
<path d="M51 153H529" stroke="#DEE2E6"/>
<path d="M21.5 191.119C20.858 191.119 20.3111 190.945 19.8594 190.595C19.4077 190.243 19.0625 189.733 18.8239 189.065C18.5852 188.395 18.4659 187.585 18.4659 186.636C18.4659 185.693 18.5852 184.888 18.8239 184.22C19.0653 183.55 19.4119 183.038 19.8636 182.686C20.3182 182.331 20.8636 182.153 21.5 182.153C22.1364 182.153 22.6804 182.331 23.1321 182.686C23.5866 183.038 23.9332 183.55 24.1719 184.22C24.4134 184.888 24.5341 185.693 24.5341 186.636C24.5341 187.585 24.4148 188.395 24.1761 189.065C23.9375 189.733 23.5923 190.243 23.1406 190.595C22.6889 190.945 22.142 191.119 21.5 191.119ZM21.5 190.182C22.1364 190.182 22.6307 189.875 22.983 189.261C23.3352 188.648 23.5114 187.773 23.5114 186.636C23.5114 185.881 23.4304 185.237 23.2685 184.706C23.1094 184.175 22.8793 183.77 22.5781 183.491C22.2798 183.213 21.9205 183.074 21.5 183.074C20.8693 183.074 20.3764 183.385 20.0213 184.007C19.6662 184.626 19.4886 185.503 19.4886 186.636C19.4886 187.392 19.5682 188.034 19.7273 188.562C19.8864 189.091 20.1151 189.493 20.4134 189.768C20.7145 190.044 21.0767 190.182 21.5 190.182ZM30.6023 189.364V188.903C30.6023 188.585 30.6676 188.294 30.7983 188.03C30.9318 187.763 31.125 187.55 31.3778 187.391C31.6335 187.229 31.9432 187.148 32.3068 187.148C32.6761 187.148 32.9858 187.229 33.2358 187.391C33.4858 187.55 33.6747 187.763 33.8026 188.03C33.9304 188.294 33.9943 188.585 33.9943 188.903V189.364C33.9943 189.682 33.929 189.974 33.7983 190.241C33.6705 190.506 33.4801 190.719 33.2273 190.881C32.9773 191.04 32.6705 191.119 32.3068 191.119C31.9375 191.119 31.6264 191.04 31.3736 190.881C31.1207 190.719 30.929 190.506 30.7983 190.241C30.6676 189.974 30.6023 189.682 30.6023 189.364ZM31.4716 188.903V189.364C31.4716 189.628 31.5341 189.865 31.6591 190.075C31.7841 190.283 32 190.386 32.3068 190.386C32.6051 190.386 32.8153 190.283 32.9375 190.075C33.0625 189.865 33.125 189.628 33.125 189.364V188.903C33.125 188.639 33.0653 188.403 32.946 188.196C32.8267 187.986 32.6136 187.881 32.3068 187.881C32.0085 187.881 31.794 187.986 31.6634 188.196C31.5355 188.403 31.4716 188.639 31.4716 188.903ZM26.2557 184.369V183.909C26.2557 183.591 26.321 183.3 26.4517 183.036C26.5852 182.768 26.7784 182.555 27.0312 182.396C27.2869 182.234 27.5966 182.153 27.9602 182.153C28.3295 182.153 28.6392 182.234 28.8892 182.396C29.1392 182.555 29.3281 182.768 29.456 183.036C29.5838 183.3 29.6477 183.591 29.6477 183.909V184.369C29.6477 184.687 29.5824 184.98 29.4517 185.247C29.3239 185.511 29.1335 185.724 28.8807 185.886C28.6307 186.045 28.3239 186.125 27.9602 186.125C27.5909 186.125 27.2798 186.045 27.027 185.886C26.7741 185.724 26.5824 185.511 26.4517 185.247C26.321 184.98 26.2557 184.687 26.2557 184.369ZM27.125 183.909V184.369C27.125 184.634 27.1875 184.871 27.3125 185.081C27.4375 185.288 27.6534 185.392 27.9602 185.392C28.2585 185.392 28.4688 185.288 28.5909 185.081C28.7159 184.871 28.7784 184.634 28.7784 184.369V183.909C28.7784 183.645 28.7188 183.409 28.5994 183.202C28.4801 182.991 28.267 182.886 27.9602 182.886C27.6619 182.886 27.4474 182.991 27.3168 183.202C27.1889 183.409 27.125 183.645 27.125 183.909ZM26.5795 191L32.5795 182.273H33.5511L27.5511 191H26.5795Z" fill="#334155"/>
<path d="M51 187H529" stroke="#DEE2E6"/>
<path d="M59.7577 200.273V209H58.7009V201.381H58.6498L56.5191 202.795V201.722L58.7009 200.273H59.7577ZM65.0461 200.153C65.404 200.156 65.762 200.224 66.1199 200.358C66.4779 200.491 66.8046 200.713 67.1001 201.023C67.3955 201.33 67.6327 201.749 67.8117 202.28C67.9907 202.811 68.0802 203.477 68.0802 204.278C68.0802 205.054 68.0063 205.743 67.8586 206.345C67.7137 206.945 67.5035 207.45 67.2279 207.862C66.9552 208.274 66.6228 208.587 66.2307 208.8C65.8415 209.013 65.4012 209.119 64.9097 209.119C64.4211 209.119 63.985 209.023 63.6015 208.83C63.2208 208.634 62.9083 208.362 62.664 208.016C62.4225 207.666 62.2677 207.261 62.1995 206.801H63.2393C63.333 207.202 63.5191 207.533 63.7975 207.794C64.0787 208.053 64.4495 208.182 64.9097 208.182C65.583 208.182 66.1143 207.888 66.5035 207.3C66.8955 206.712 67.0915 205.881 67.0915 204.807H67.0233C66.8643 205.045 66.6753 205.251 66.4566 205.425C66.2378 205.598 65.9949 205.732 65.7279 205.825C65.4608 205.919 65.1768 205.966 64.8756 205.966C64.3756 205.966 63.9168 205.842 63.4992 205.595C63.0844 205.345 62.752 205.003 62.502 204.568C62.2549 204.131 62.1313 203.631 62.1313 203.068C62.1313 202.534 62.2506 202.045 62.4893 201.602C62.7307 201.156 63.0688 200.801 63.5035 200.537C63.941 200.273 64.4552 200.145 65.0461 200.153ZM65.0461 201.091C64.6881 201.091 64.3657 201.18 64.0787 201.359C63.7947 201.536 63.5688 201.774 63.4012 202.075C63.2364 202.374 63.154 202.705 63.154 203.068C63.154 203.432 63.2336 203.763 63.3927 204.061C63.5546 204.357 63.7748 204.592 64.0532 204.768C64.3344 204.942 64.654 205.028 65.012 205.028C65.2819 205.028 65.5333 204.976 65.7662 204.871C65.9992 204.763 66.2023 204.616 66.3756 204.432C66.5518 204.244 66.6895 204.033 66.789 203.797C66.8884 203.558 66.9381 203.31 66.9381 203.051C66.9381 202.71 66.8557 202.391 66.691 202.092C66.529 201.794 66.3046 201.553 66.0177 201.368C65.7336 201.183 65.4097 201.091 65.0461 201.091ZM72.5344 200.153C72.8923 200.156 73.2503 200.224 73.6082 200.358C73.9662 200.491 74.2929 200.713 74.5883 201.023C74.8838 201.33 75.121 201.749 75.3 202.28C75.479 202.811 75.5684 203.477 75.5684 204.278C75.5684 205.054 75.4946 205.743 75.3469 206.345C75.202 206.945 74.9917 207.45 74.7162 207.862C74.4434 208.274 74.1111 208.587 73.719 208.8C73.3298 209.013 72.8895 209.119 72.398 209.119C71.9094 209.119 71.4733 209.023 71.0898 208.83C70.7091 208.634 70.3966 208.362 70.1523 208.016C69.9108 207.666 69.7559 207.261 69.6878 206.801H70.7275C70.8213 207.202 71.0074 207.533 71.2858 207.794C71.567 208.053 71.9378 208.182 72.398 208.182C73.0713 208.182 73.6025 207.888 73.9917 207.3C74.3838 206.712 74.5798 205.881 74.5798 204.807H74.5116C74.3525 205.045 74.1636 205.251 73.9449 205.425C73.7261 205.598 73.4832 205.732 73.2162 205.825C72.9491 205.919 72.665 205.966 72.3639 205.966C71.8639 205.966 71.4051 205.842 70.9875 205.595C70.5727 205.345 70.2403 205.003 69.9903 204.568C69.7432 204.131 69.6196 203.631 69.6196 203.068C69.6196 202.534 69.7389 202.045 69.9775 201.602C70.219 201.156 70.5571 200.801 70.9917 200.537C71.4292 200.273 71.9434 200.145 72.5344 200.153ZM72.5344 201.091C72.1764 201.091 71.854 201.18 71.567 201.359C71.2829 201.536 71.0571 201.774 70.8895 202.075C70.7247 202.374 70.6423 202.705 70.6423 203.068C70.6423 203.432 70.7219 203.763 70.8809 204.061C71.0429 204.357 71.2631 204.592 71.5415 204.768C71.8227 204.942 72.1423 205.028 72.5003 205.028C72.7702 205.028 73.0216 204.976 73.2545 204.871C73.4875 204.763 73.6906 204.616 73.8639 204.432C74.04 204.244 74.1778 204.033 74.2773 203.797C74.3767 203.558 74.4264 203.31 74.4264 203.051C74.4264 202.71 74.344 202.391 74.1792 202.092C74.0173 201.794 73.7929 201.553 73.5059 201.368C73.2219 201.183 72.898 201.091 72.5344 201.091ZM80.142 209.119C79.784 209.114 79.426 209.045 79.0681 208.915C78.7101 208.784 78.3834 208.564 78.088 208.254C77.7925 207.942 77.5553 207.52 77.3763 206.989C77.1974 206.455 77.1079 205.784 77.1079 204.977C77.1079 204.205 77.1803 203.52 77.3252 202.923C77.4701 202.324 77.6803 201.82 77.9559 201.411C78.2314 200.999 78.5638 200.686 78.953 200.473C79.3451 200.26 79.7868 200.153 80.2783 200.153C80.767 200.153 81.2016 200.251 81.5823 200.447C81.9658 200.641 82.2783 200.911 82.5198 201.257C82.7613 201.604 82.9175 202.003 82.9885 202.455H81.9488C81.8522 202.062 81.6647 201.737 81.3863 201.479C81.1079 201.22 80.7385 201.091 80.2783 201.091C79.6022 201.091 79.0695 201.385 78.6803 201.973C78.2939 202.561 78.0993 203.386 78.0965 204.449H78.1647C78.3238 204.207 78.5127 204.001 78.7314 203.831C78.953 203.658 79.1974 203.524 79.4644 203.43C79.7314 203.337 80.0141 203.29 80.3124 203.29C80.8124 203.29 81.2698 203.415 81.6846 203.665C82.0993 203.912 82.4317 204.254 82.6817 204.692C82.9317 205.126 83.0567 205.625 83.0567 206.188C83.0567 206.727 82.936 207.222 82.6945 207.67C82.453 208.116 82.1135 208.472 81.676 208.736C81.2414 208.997 80.73 209.125 80.142 209.119ZM80.142 208.182C80.4999 208.182 80.8209 208.092 81.105 207.913C81.392 207.734 81.6178 207.494 81.7826 207.193C81.9502 206.892 82.034 206.557 82.034 206.188C82.034 205.827 81.953 205.499 81.7911 205.203C81.632 204.905 81.4118 204.668 81.1306 204.491C80.8522 204.315 80.534 204.227 80.176 204.227C79.9062 204.227 79.6547 204.281 79.4218 204.389C79.1888 204.494 78.9843 204.639 78.8081 204.824C78.6349 205.009 78.4985 205.22 78.3991 205.459C78.2996 205.695 78.2499 205.943 78.2499 206.205C78.2499 206.551 78.3309 206.875 78.4928 207.176C78.6576 207.477 78.882 207.72 79.1661 207.905C79.453 208.089 79.7783 208.182 80.142 208.182Z" fill="#334155"/>
<path d="M126.761 209V208.233L129.642 205.08C129.98 204.71 130.258 204.389 130.477 204.116C130.695 203.841 130.857 203.582 130.963 203.341C131.07 203.097 131.124 202.841 131.124 202.574C131.124 202.267 131.051 202.001 130.903 201.777C130.758 201.553 130.559 201.379 130.306 201.257C130.053 201.135 129.769 201.074 129.454 201.074C129.119 201.074 128.826 201.143 128.576 201.283C128.329 201.419 128.137 201.611 128.001 201.858C127.867 202.105 127.801 202.395 127.801 202.727H126.795C126.795 202.216 126.913 201.767 127.149 201.381C127.384 200.994 127.705 200.693 128.112 200.477C128.521 200.261 128.98 200.153 129.488 200.153C129.999 200.153 130.453 200.261 130.847 200.477C131.242 200.693 131.552 200.984 131.776 201.351C132.001 201.717 132.113 202.125 132.113 202.574C132.113 202.895 132.055 203.209 131.938 203.516C131.825 203.82 131.626 204.159 131.342 204.534C131.061 204.906 130.67 205.361 130.17 205.898L128.21 207.994V208.062H132.267V209H126.761ZM136.873 209.119C136.231 209.119 135.684 208.945 135.232 208.595C134.781 208.243 134.436 207.733 134.197 207.065C133.958 206.395 133.839 205.585 133.839 204.636C133.839 203.693 133.958 202.888 134.197 202.22C134.438 201.55 134.785 201.038 135.237 200.686C135.691 200.331 136.237 200.153 136.873 200.153C137.509 200.153 138.053 200.331 138.505 200.686C138.96 201.038 139.306 201.55 139.545 202.22C139.786 202.888 139.907 203.693 139.907 204.636C139.907 205.585 139.788 206.395 139.549 207.065C139.311 207.733 138.965 208.243 138.514 208.595C138.062 208.945 137.515 209.119 136.873 209.119ZM136.873 208.182C137.509 208.182 138.004 207.875 138.356 207.261C138.708 206.648 138.884 205.773 138.884 204.636C138.884 203.881 138.803 203.237 138.642 202.706C138.482 202.175 138.252 201.77 137.951 201.491C137.653 201.213 137.294 201.074 136.873 201.074C136.242 201.074 135.749 201.385 135.394 202.007C135.039 202.626 134.862 203.503 134.862 204.636C134.862 205.392 134.941 206.034 135.1 206.562C135.259 207.091 135.488 207.493 135.786 207.768C136.088 208.044 136.45 208.182 136.873 208.182ZM144.373 209.119C143.731 209.119 143.184 208.945 142.732 208.595C142.281 208.243 141.936 207.733 141.697 207.065C141.458 206.395 141.339 205.585 141.339 204.636C141.339 203.693 141.458 202.888 141.697 202.22C141.938 201.55 142.285 201.038 142.737 200.686C143.191 200.331 143.737 200.153 144.373 200.153C145.009 200.153 145.553 200.331 146.005 200.686C146.46 201.038 146.806 201.55 147.045 202.22C147.286 202.888 147.407 203.693 147.407 204.636C147.407 205.585 147.288 206.395 147.049 207.065C146.811 207.733 146.465 208.243 146.014 208.595C145.562 208.945 145.015 209.119 144.373 209.119ZM144.373 208.182C145.009 208.182 145.504 207.875 145.856 207.261C146.208 206.648 146.384 205.773 146.384 204.636C146.384 203.881 146.303 203.237 146.142 202.706C145.982 202.175 145.752 201.77 145.451 201.491C145.153 201.213 144.794 201.074 144.373 201.074C143.742 201.074 143.249 201.385 142.894 202.007C142.539 202.626 142.362 203.503 142.362 204.636C142.362 205.392 142.441 206.034 142.6 206.562C142.759 207.091 142.988 207.493 143.286 207.768C143.588 208.044 143.95 208.182 144.373 208.182ZM151.873 209.119C151.231 209.119 150.684 208.945 150.232 208.595C149.781 208.243 149.436 207.733 149.197 207.065C148.958 206.395 148.839 205.585 148.839 204.636C148.839 203.693 148.958 202.888 149.197 202.22C149.438 201.55 149.785 201.038 150.237 200.686C150.691 200.331 151.237 200.153 151.873 200.153C152.509 200.153 153.053 200.331 153.505 200.686C153.96 201.038 154.306 201.55 154.545 202.22C154.786 202.888 154.907 203.693 154.907 204.636C154.907 205.585 154.788 206.395 154.549 207.065C154.311 207.733 153.965 208.243 153.514 208.595C153.062 208.945 152.515 209.119 151.873 209.119ZM151.873 208.182C152.509 208.182 153.004 207.875 153.356 207.261C153.708 206.648 153.884 205.773 153.884 204.636C153.884 203.881 153.803 203.237 153.642 202.706C153.482 202.175 153.252 201.77 152.951 201.491C152.653 201.213 152.294 201.074 151.873 201.074C151.242 201.074 150.749 201.385 150.394 202.007C150.039 202.626 149.862 203.503 149.862 204.636C149.862 205.392 149.941 206.034 150.1 206.562C150.259 207.091 150.488 207.493 150.786 207.768C151.088 208.044 151.45 208.182 151.873 208.182Z" fill="#334155"/>
<path d="M197.332 209V208.233L200.213 205.08C200.551 204.71 200.829 204.389 201.048 204.116C201.267 203.841 201.429 203.582 201.534 203.341C201.642 203.097 201.696 202.841 201.696 202.574C201.696 202.267 201.622 202.001 201.474 201.777C201.329 201.553 201.13 201.379 200.878 201.257C200.625 201.135 200.341 201.074 200.025 201.074C199.69 201.074 199.397 201.143 199.147 201.283C198.9 201.419 198.709 201.611 198.572 201.858C198.439 202.105 198.372 202.395 198.372 202.727H197.366C197.366 202.216 197.484 201.767 197.72 201.381C197.956 200.994 198.277 200.693 198.683 200.477C199.092 200.261 199.551 200.153 200.059 200.153C200.571 200.153 201.024 200.261 201.419 200.477C201.814 200.693 202.123 200.984 202.348 201.351C202.572 201.717 202.684 202.125 202.684 202.574C202.684 202.895 202.626 203.209 202.51 203.516C202.396 203.82 202.197 204.159 201.913 204.534C201.632 204.906 201.241 205.361 200.741 205.898L198.781 207.994V208.062H202.838V209H197.332ZM207.444 209.119C206.802 209.119 206.255 208.945 205.804 208.595C205.352 208.243 205.007 207.733 204.768 207.065C204.53 206.395 204.41 205.585 204.41 204.636C204.41 203.693 204.53 202.888 204.768 202.22C205.01 201.55 205.356 201.038 205.808 200.686C206.263 200.331 206.808 200.153 207.444 200.153C208.081 200.153 208.625 200.331 209.076 200.686C209.531 201.038 209.878 201.55 210.116 202.22C210.358 202.888 210.478 203.693 210.478 204.636C210.478 205.585 210.359 206.395 210.12 207.065C209.882 207.733 209.537 208.243 209.085 208.595C208.633 208.945 208.086 209.119 207.444 209.119ZM207.444 208.182C208.081 208.182 208.575 207.875 208.927 207.261C209.28 206.648 209.456 205.773 209.456 204.636C209.456 203.881 209.375 203.237 209.213 202.706C209.054 202.175 208.824 201.77 208.522 201.491C208.224 201.213 207.865 201.074 207.444 201.074C206.814 201.074 206.321 201.385 205.966 202.007C205.611 202.626 205.433 203.503 205.433 204.636C205.433 205.392 205.513 206.034 205.672 206.562C205.831 207.091 206.059 207.493 206.358 207.768C206.659 208.044 207.021 208.182 207.444 208.182ZM214.944 209.119C214.302 209.119 213.755 208.945 213.304 208.595C212.852 208.243 212.507 207.733 212.268 207.065C212.03 206.395 211.91 205.585 211.91 204.636C211.91 203.693 212.03 202.888 212.268 202.22C212.51 201.55 212.856 201.038 213.308 200.686C213.763 200.331 214.308 200.153 214.944 200.153C215.581 200.153 216.125 200.331 216.576 200.686C217.031 201.038 217.378 201.55 217.616 202.22C217.858 202.888 217.978 203.693 217.978 204.636C217.978 205.585 217.859 206.395 217.62 207.065C217.382 207.733 217.037 208.243 216.585 208.595C216.133 208.945 215.586 209.119 214.944 209.119ZM214.944 208.182C215.581 208.182 216.075 207.875 216.427 207.261C216.78 206.648 216.956 205.773 216.956 204.636C216.956 203.881 216.875 203.237 216.713 202.706C216.554 202.175 216.324 201.77 216.022 201.491C215.724 201.213 215.365 201.074 214.944 201.074C214.314 201.074 213.821 201.385 213.466 202.007C213.111 202.626 212.933 203.503 212.933 204.636C212.933 205.392 213.013 206.034 213.172 206.562C213.331 207.091 213.559 207.493 213.858 207.768C214.159 208.044 214.521 208.182 214.944 208.182ZM219.393 207.21V206.341L223.228 200.273H223.859V201.619H223.433L220.535 206.205V206.273H225.7V207.21H219.393ZM223.501 209V206.946V206.541V200.273H224.507V209H223.501Z" fill="#334155"/>
<path d="M267.903 209V208.233L270.784 205.08C271.122 204.71 271.401 204.389 271.619 204.116C271.838 203.841 272 203.582 272.105 203.341C272.213 203.097 272.267 202.841 272.267 202.574C272.267 202.267 272.193 202.001 272.045 201.777C271.901 201.553 271.702 201.379 271.449 201.257C271.196 201.135 270.912 201.074 270.597 201.074C270.261 201.074 269.969 201.143 269.719 201.283C269.472 201.419 269.28 201.611 269.143 201.858C269.01 202.105 268.943 202.395 268.943 202.727H267.938C267.938 202.216 268.055 201.767 268.291 201.381C268.527 200.994 268.848 200.693 269.254 200.477C269.663 200.261 270.122 200.153 270.631 200.153C271.142 200.153 271.595 200.261 271.99 200.477C272.385 200.693 272.695 200.984 272.919 201.351C273.143 201.717 273.256 202.125 273.256 202.574C273.256 202.895 273.197 203.209 273.081 203.516C272.967 203.82 272.768 204.159 272.484 204.534C272.203 204.906 271.812 205.361 271.312 205.898L269.352 207.994V208.062H273.409V209H267.903ZM278.016 209.119C277.374 209.119 276.827 208.945 276.375 208.595C275.923 208.243 275.578 207.733 275.339 207.065C275.101 206.395 274.982 205.585 274.982 204.636C274.982 203.693 275.101 202.888 275.339 202.22C275.581 201.55 275.928 201.038 276.379 200.686C276.834 200.331 277.379 200.153 278.016 200.153C278.652 200.153 279.196 200.331 279.648 200.686C280.102 201.038 280.449 201.55 280.688 202.22C280.929 202.888 281.05 203.693 281.05 204.636C281.05 205.585 280.93 206.395 280.692 207.065C280.453 207.733 280.108 208.243 279.656 208.595C279.205 208.945 278.658 209.119 278.016 209.119ZM278.016 208.182C278.652 208.182 279.146 207.875 279.499 207.261C279.851 206.648 280.027 205.773 280.027 204.636C280.027 203.881 279.946 203.237 279.784 202.706C279.625 202.175 279.395 201.77 279.094 201.491C278.795 201.213 278.436 201.074 278.016 201.074C277.385 201.074 276.892 201.385 276.537 202.007C276.182 202.626 276.004 203.503 276.004 204.636C276.004 205.392 276.084 206.034 276.243 206.562C276.402 207.091 276.631 207.493 276.929 207.768C277.23 208.044 277.592 208.182 278.016 208.182ZM285.516 209.119C284.874 209.119 284.327 208.945 283.875 208.595C283.423 208.243 283.078 207.733 282.839 207.065C282.601 206.395 282.482 205.585 282.482 204.636C282.482 203.693 282.601 202.888 282.839 202.22C283.081 201.55 283.428 201.038 283.879 200.686C284.334 200.331 284.879 200.153 285.516 200.153C286.152 200.153 286.696 200.331 287.148 200.686C287.602 201.038 287.949 201.55 288.188 202.22C288.429 202.888 288.55 203.693 288.55 204.636C288.55 205.585 288.43 206.395 288.192 207.065C287.953 207.733 287.608 208.243 287.156 208.595C286.705 208.945 286.158 209.119 285.516 209.119ZM285.516 208.182C286.152 208.182 286.646 207.875 286.999 207.261C287.351 206.648 287.527 205.773 287.527 204.636C287.527 203.881 287.446 203.237 287.284 202.706C287.125 202.175 286.895 201.77 286.594 201.491C286.295 201.213 285.936 201.074 285.516 201.074C284.885 201.074 284.392 201.385 284.037 202.007C283.682 202.626 283.504 203.503 283.504 204.636C283.504 205.392 283.584 206.034 283.743 206.562C283.902 207.091 284.131 207.493 284.429 207.768C284.73 208.044 285.092 208.182 285.516 208.182ZM292.964 209.119C292.379 209.119 291.862 209.016 291.413 208.808C290.967 208.598 290.619 208.31 290.369 207.943C290.119 207.574 289.996 207.153 289.999 206.682C289.996 206.312 290.068 205.972 290.216 205.659C290.364 205.344 290.565 205.081 290.821 204.871C291.08 204.658 291.368 204.523 291.686 204.466V204.415C291.268 204.307 290.936 204.072 290.689 203.712C290.442 203.348 290.32 202.935 290.322 202.472C290.32 202.028 290.432 201.632 290.659 201.283C290.886 200.933 291.199 200.658 291.597 200.456C291.997 200.254 292.453 200.153 292.964 200.153C293.47 200.153 293.922 200.254 294.32 200.456C294.717 200.658 295.03 200.933 295.257 201.283C295.487 201.632 295.604 202.028 295.607 202.472C295.604 202.935 295.477 203.348 295.227 203.712C294.98 204.072 294.652 204.307 294.243 204.415V204.466C294.558 204.523 294.842 204.658 295.095 204.871C295.348 205.081 295.55 205.344 295.7 205.659C295.851 205.972 295.928 206.312 295.93 206.682C295.928 207.153 295.8 207.574 295.547 207.943C295.297 208.31 294.949 208.598 294.503 208.808C294.06 209.016 293.547 209.119 292.964 209.119ZM292.964 208.182C293.359 208.182 293.7 208.118 293.987 207.99C294.274 207.862 294.496 207.682 294.652 207.449C294.808 207.216 294.888 206.943 294.891 206.631C294.888 206.301 294.803 206.01 294.635 205.757C294.467 205.504 294.239 205.305 293.949 205.161C293.662 205.016 293.334 204.943 292.964 204.943C292.592 204.943 292.26 205.016 291.967 205.161C291.678 205.305 291.449 205.504 291.281 205.757C291.116 206.01 291.036 206.301 291.038 206.631C291.036 206.943 291.111 207.216 291.264 207.449C291.42 207.682 291.643 207.862 291.933 207.99C292.223 208.118 292.567 208.182 292.964 208.182ZM292.964 204.04C293.277 204.04 293.554 203.977 293.795 203.852C294.04 203.727 294.232 203.553 294.371 203.328C294.51 203.104 294.581 202.841 294.584 202.54C294.581 202.244 294.511 201.987 294.375 201.768C294.239 201.547 294.05 201.376 293.808 201.257C293.567 201.135 293.286 201.074 292.964 201.074C292.638 201.074 292.352 201.135 292.108 201.257C291.864 201.376 291.675 201.547 291.541 201.768C291.408 201.987 291.342 202.244 291.345 202.54C291.342 202.841 291.409 203.104 291.545 203.328C291.685 203.553 291.876 203.727 292.121 203.852C292.365 203.977 292.646 204.04 292.964 204.04Z" fill="#334155"/>
<path d="M339.476 209V208.233L342.356 205.08C342.694 204.71 342.973 204.389 343.192 204.116C343.41 203.841 343.572 203.582 343.677 203.341C343.785 203.097 343.839 202.841 343.839 202.574C343.839 202.267 343.765 202.001 343.618 201.777C343.473 201.553 343.274 201.379 343.021 201.257C342.768 201.135 342.484 201.074 342.169 201.074C341.834 201.074 341.541 201.143 341.291 201.283C341.044 201.419 340.852 201.611 340.716 201.858C340.582 202.105 340.515 202.395 340.515 202.727H339.51C339.51 202.216 339.628 201.767 339.863 201.381C340.099 200.994 340.42 200.693 340.827 200.477C341.236 200.261 341.694 200.153 342.203 200.153C342.714 200.153 343.167 200.261 343.562 200.477C343.957 200.693 344.267 200.984 344.491 201.351C344.716 201.717 344.828 202.125 344.828 202.574C344.828 202.895 344.77 203.209 344.653 203.516C344.54 203.82 344.341 204.159 344.057 204.534C343.775 204.906 343.385 205.361 342.885 205.898L340.925 207.994V208.062H344.981V209H339.476ZM349.588 209.119C348.946 209.119 348.399 208.945 347.947 208.595C347.496 208.243 347.15 207.733 346.912 207.065C346.673 206.395 346.554 205.585 346.554 204.636C346.554 203.693 346.673 202.888 346.912 202.22C347.153 201.55 347.5 201.038 347.952 200.686C348.406 200.331 348.952 200.153 349.588 200.153C350.224 200.153 350.768 200.331 351.22 200.686C351.675 201.038 352.021 201.55 352.26 202.22C352.501 202.888 352.622 203.693 352.622 204.636C352.622 205.585 352.503 206.395 352.264 207.065C352.025 207.733 351.68 208.243 351.229 208.595C350.777 208.945 350.23 209.119 349.588 209.119ZM349.588 208.182C350.224 208.182 350.719 207.875 351.071 207.261C351.423 206.648 351.599 205.773 351.599 204.636C351.599 203.881 351.518 203.237 351.356 202.706C351.197 202.175 350.967 201.77 350.666 201.491C350.368 201.213 350.008 201.074 349.588 201.074C348.957 201.074 348.464 201.385 348.109 202.007C347.754 202.626 347.577 203.503 347.577 204.636C347.577 205.392 347.656 206.034 347.815 206.562C347.974 207.091 348.203 207.493 348.501 207.768C348.802 208.044 349.165 208.182 349.588 208.182ZM357.309 200.273V209H356.253V201.381H356.202L354.071 202.795V201.722L356.253 200.273H357.309ZM359.819 209V208.233L362.7 205.08C363.038 204.71 363.317 204.389 363.535 204.116C363.754 203.841 363.916 203.582 364.021 203.341C364.129 203.097 364.183 202.841 364.183 202.574C364.183 202.267 364.109 202.001 363.961 201.777C363.817 201.553 363.618 201.379 363.365 201.257C363.112 201.135 362.828 201.074 362.513 201.074C362.177 201.074 361.885 201.143 361.635 201.283C361.388 201.419 361.196 201.611 361.059 201.858C360.926 202.105 360.859 202.395 360.859 202.727H359.854C359.854 202.216 359.971 201.767 360.207 201.381C360.443 200.994 360.764 200.693 361.17 200.477C361.579 200.261 362.038 200.153 362.547 200.153C363.058 200.153 363.511 200.261 363.906 200.477C364.301 200.693 364.611 200.984 364.835 201.351C365.059 201.717 365.172 202.125 365.172 202.574C365.172 202.895 365.113 203.209 364.997 203.516C364.883 203.82 364.684 204.159 364.4 204.534C364.119 204.906 363.729 205.361 363.229 205.898L361.268 207.994V208.062H365.325V209H359.819Z" fill="#334155"/>
<path d="M410.047 209V208.233L412.928 205.08C413.266 204.71 413.544 204.389 413.763 204.116C413.982 203.841 414.144 203.582 414.249 203.341C414.357 203.097 414.411 202.841 414.411 202.574C414.411 202.267 414.337 202.001 414.189 201.777C414.044 201.553 413.845 201.379 413.592 201.257C413.34 201.135 413.055 201.074 412.74 201.074C412.405 201.074 412.112 201.143 411.862 201.283C411.615 201.419 411.423 201.611 411.287 201.858C411.153 202.105 411.087 202.395 411.087 202.727H410.081C410.081 202.216 410.199 201.767 410.435 201.381C410.671 200.994 410.992 200.693 411.398 200.477C411.807 200.261 412.266 200.153 412.774 200.153C413.286 200.153 413.739 200.261 414.134 200.477C414.528 200.693 414.838 200.984 415.063 201.351C415.287 201.717 415.399 202.125 415.399 202.574C415.399 202.895 415.341 203.209 415.225 203.516C415.111 203.82 414.912 204.159 414.628 204.534C414.347 204.906 413.956 205.361 413.456 205.898L411.496 207.994V208.062H415.553V209H410.047ZM420.159 209.119C419.517 209.119 418.97 208.945 418.519 208.595C418.067 208.243 417.722 207.733 417.483 207.065C417.244 206.395 417.125 205.585 417.125 204.636C417.125 203.693 417.244 202.888 417.483 202.22C417.725 201.55 418.071 201.038 418.523 200.686C418.977 200.331 419.523 200.153 420.159 200.153C420.796 200.153 421.34 200.331 421.791 200.686C422.246 201.038 422.592 201.55 422.831 202.22C423.073 202.888 423.193 203.693 423.193 204.636C423.193 205.585 423.074 206.395 422.835 207.065C422.597 207.733 422.252 208.243 421.8 208.595C421.348 208.945 420.801 209.119 420.159 209.119ZM420.159 208.182C420.796 208.182 421.29 207.875 421.642 207.261C421.994 206.648 422.171 205.773 422.171 204.636C422.171 203.881 422.09 203.237 421.928 202.706C421.769 202.175 421.538 201.77 421.237 201.491C420.939 201.213 420.58 201.074 420.159 201.074C419.528 201.074 419.036 201.385 418.68 202.007C418.325 202.626 418.148 203.503 418.148 204.636C418.148 205.392 418.227 206.034 418.386 206.562C418.546 207.091 418.774 207.493 419.073 207.768C419.374 208.044 419.736 208.182 420.159 208.182ZM427.881 200.273V209H426.824V201.381H426.773L424.642 202.795V201.722L426.824 200.273H427.881ZM433.288 209.119C432.93 209.114 432.573 209.045 432.215 208.915C431.857 208.784 431.53 208.564 431.234 208.254C430.939 207.942 430.702 207.52 430.523 206.989C430.344 206.455 430.254 205.784 430.254 204.977C430.254 204.205 430.327 203.52 430.472 202.923C430.617 202.324 430.827 201.82 431.102 201.411C431.378 200.999 431.71 200.686 432.1 200.473C432.492 200.26 432.933 200.153 433.425 200.153C433.913 200.153 434.348 200.251 434.729 200.447C435.112 200.641 435.425 200.911 435.666 201.257C435.908 201.604 436.064 202.003 436.135 202.455H435.095C434.999 202.062 434.811 201.737 434.533 201.479C434.254 201.22 433.885 201.091 433.425 201.091C432.749 201.091 432.216 201.385 431.827 201.973C431.44 202.561 431.246 203.386 431.243 204.449H431.311C431.47 204.207 431.659 204.001 431.878 203.831C432.1 203.658 432.344 203.524 432.611 203.43C432.878 203.337 433.161 203.29 433.459 203.29C433.959 203.29 434.416 203.415 434.831 203.665C435.246 203.912 435.578 204.254 435.828 204.692C436.078 205.126 436.203 205.625 436.203 206.188C436.203 206.727 436.082 207.222 435.841 207.67C435.6 208.116 435.26 208.472 434.823 208.736C434.388 208.997 433.877 209.125 433.288 209.119ZM433.288 208.182C433.646 208.182 433.967 208.092 434.252 207.913C434.538 207.734 434.764 207.494 434.929 207.193C435.097 206.892 435.18 206.557 435.18 206.188C435.18 205.827 435.1 205.499 434.938 205.203C434.778 204.905 434.558 204.668 434.277 204.491C433.999 204.315 433.68 204.227 433.323 204.227C433.053 204.227 432.801 204.281 432.568 204.389C432.335 204.494 432.131 204.639 431.955 204.824C431.781 205.009 431.645 205.22 431.546 205.459C431.446 205.695 431.396 205.943 431.396 206.205C431.396 206.551 431.477 206.875 431.639 207.176C431.804 207.477 432.028 207.72 432.313 207.905C432.6 208.089 432.925 208.182 433.288 208.182Z" fill="#334155"/>
<path d="M485.618 209V208.233L488.499 205.08C488.837 204.71 489.115 204.389 489.334 204.116C489.553 203.841 489.715 203.582 489.82 203.341C489.928 203.097 489.982 202.841 489.982 202.574C489.982 202.267 489.908 202.001 489.76 201.777C489.615 201.553 489.417 201.379 489.164 201.257C488.911 201.135 488.627 201.074 488.311 201.074C487.976 201.074 487.684 201.143 487.434 201.283C487.186 201.419 486.995 201.611 486.858 201.858C486.725 202.105 486.658 202.395 486.658 202.727H485.652C485.652 202.216 485.77 201.767 486.006 201.381C486.242 200.994 486.563 200.693 486.969 200.477C487.378 200.261 487.837 200.153 488.346 200.153C488.857 200.153 489.31 200.261 489.705 200.477C490.1 200.693 490.409 200.984 490.634 201.351C490.858 201.717 490.971 202.125 490.971 202.574C490.971 202.895 490.912 203.209 490.796 203.516C490.682 203.82 490.483 204.159 490.199 204.534C489.918 204.906 489.527 205.361 489.027 205.898L487.067 207.994V208.062H491.124V209H485.618ZM495.73 209.119C495.088 209.119 494.542 208.945 494.09 208.595C493.638 208.243 493.293 207.733 493.054 207.065C492.816 206.395 492.696 205.585 492.696 204.636C492.696 203.693 492.816 202.888 493.054 202.22C493.296 201.55 493.642 201.038 494.094 200.686C494.549 200.331 495.094 200.153 495.73 200.153C496.367 200.153 496.911 200.331 497.363 200.686C497.817 201.038 498.164 201.55 498.402 202.22C498.644 202.888 498.765 203.693 498.765 204.636C498.765 205.585 498.645 206.395 498.407 207.065C498.168 207.733 497.823 208.243 497.371 208.595C496.919 208.945 496.373 209.119 495.73 209.119ZM495.73 208.182C496.367 208.182 496.861 207.875 497.213 207.261C497.566 206.648 497.742 205.773 497.742 204.636C497.742 203.881 497.661 203.237 497.499 202.706C497.34 202.175 497.11 201.77 496.809 201.491C496.51 201.213 496.151 201.074 495.73 201.074C495.1 201.074 494.607 201.385 494.252 202.007C493.897 202.626 493.719 203.503 493.719 204.636C493.719 205.392 493.799 206.034 493.958 206.562C494.117 207.091 494.346 207.493 494.644 207.768C494.945 208.044 495.307 208.182 495.73 208.182ZM500.384 209V208.233L503.265 205.08C503.603 204.71 503.881 204.389 504.1 204.116C504.319 203.841 504.48 203.582 504.586 203.341C504.694 203.097 504.748 202.841 504.748 202.574C504.748 202.267 504.674 202.001 504.526 201.777C504.381 201.553 504.182 201.379 503.929 201.257C503.676 201.135 503.392 201.074 503.077 201.074C502.742 201.074 502.449 201.143 502.199 201.283C501.952 201.419 501.76 201.611 501.624 201.858C501.49 202.105 501.424 202.395 501.424 202.727H500.418C500.418 202.216 500.536 201.767 500.772 201.381C501.007 200.994 501.328 200.693 501.735 200.477C502.144 200.261 502.603 200.153 503.111 200.153C503.623 200.153 504.076 200.261 504.471 200.477C504.865 200.693 505.175 200.984 505.4 201.351C505.624 201.717 505.736 202.125 505.736 202.574C505.736 202.895 505.678 203.209 505.561 203.516C505.448 203.82 505.249 204.159 504.965 204.534C504.684 204.906 504.293 205.361 503.793 205.898L501.833 207.994V208.062H505.89V209H500.384ZM510.496 209.119C509.854 209.119 509.307 208.945 508.855 208.595C508.404 208.243 508.059 207.733 507.82 207.065C507.581 206.395 507.462 205.585 507.462 204.636C507.462 203.693 507.581 202.888 507.82 202.22C508.061 201.55 508.408 201.038 508.86 200.686C509.314 200.331 509.86 200.153 510.496 200.153C511.132 200.153 511.676 200.331 512.128 200.686C512.583 201.038 512.929 201.55 513.168 202.22C513.409 202.888 513.53 203.693 513.53 204.636C513.53 205.585 513.411 206.395 513.172 207.065C512.934 207.733 512.588 208.243 512.137 208.595C511.685 208.945 511.138 209.119 510.496 209.119ZM510.496 208.182C511.132 208.182 511.627 207.875 511.979 207.261C512.331 206.648 512.507 205.773 512.507 204.636C512.507 203.881 512.426 203.237 512.265 202.706C512.105 202.175 511.875 201.77 511.574 201.491C511.276 201.213 510.917 201.074 510.496 201.074C509.865 201.074 509.373 201.385 509.017 202.007C508.662 202.626 508.485 203.503 508.485 204.636C508.485 205.392 508.564 206.034 508.723 206.562C508.882 207.091 509.111 207.493 509.409 207.768C509.711 208.044 510.073 208.182 510.496 208.182Z" fill="#334155"/>
<path d="M49.7667 52C49.7667 54.0619 51.4381 55.7333 53.5 55.7333C55.5619 55.7333 57.2333 54.0619 57.2333 52C57.2333 49.9381 55.5619 48.2667 53.5 48.2667C51.4381 48.2667 49.7667 49.9381 49.7667 52ZM138.84 41.118L139.067 40.4559L138.913 40.4031L138.751 40.4237L138.84 41.118ZM196.841 61L196.614 61.6622L196.76 61.7124L196.915 61.6961L196.841 61ZM428.754 43L428.794 43.6988L428.819 43.6974L428.844 43.6942L428.754 43ZM525.267 30C525.267 32.0619 526.938 33.7333 529 33.7333C531.062 33.7333 532.733 32.0619 532.733 30C532.733 27.9381 531.062 26.2667 529 26.2667C526.938 26.2667 525.267 27.9381 525.267 30ZM53.5885 52.6944L138.928 41.8124L138.751 40.4237L53.4115 51.3056L53.5885 52.6944ZM138.613 41.7802L196.614 61.6622L197.068 60.3378L139.067 40.4559L138.613 41.7802ZM196.915 61.6961C214.993 59.7795 242.373 56.9046 265.757 54.5089C277.448 53.311 288.14 52.233 296.17 51.4545C304.231 50.6731 309.55 50.2 310.553 50.2V48.8C309.461 48.8 304.039 49.2852 296.035 50.0611C288.001 50.8399 277.307 51.9182 265.614 53.1161C242.228 55.5121 214.847 58.3872 196.767 60.3039L196.915 61.6961ZM310.553 50.2C314.769 50.2 391.163 45.8642 428.794 43.6988L428.713 42.3012C391.035 44.4692 314.716 48.8 310.553 48.8V50.2ZM428.844 43.6942L529.09 30.6942L528.91 29.3058L428.664 42.3058L428.844 43.6942Z" fill="#8082FF"/>
<path d="M48.7667 117.692C48.7667 119.754 50.4381 121.426 52.5 121.426C54.5619 121.426 56.2333 119.754 56.2333 117.692C56.2333 115.63 54.5619 113.959 52.5 113.959C50.4381 113.959 48.7667 115.63 48.7667 117.692ZM197.079 117.692L197.119 116.993L197.099 116.992H197.079V117.692ZM429.2 115L429.249 114.302L429.203 114.298L429.157 114.301L429.2 115ZM525.267 122C525.267 124.062 526.938 125.733 529 125.733C531.062 125.733 532.733 124.062 532.733 122C532.733 119.938 531.062 118.267 529 118.267C526.938 118.267 525.267 119.938 525.267 122ZM52.5 118.392H118.457V116.992H52.5V118.392ZM118.457 118.392H197.079V116.992H118.457V118.392ZM197.039 118.391C272.359 122.699 302.492 122.7 306.7 122.7V121.3C302.522 121.3 272.417 121.301 197.119 116.993L197.039 118.391ZM306.7 122.7C310.922 122.7 391.576 118.031 429.244 115.699L429.157 114.301C391.448 116.636 310.865 121.3 306.7 121.3V122.7ZM429.152 115.698L528.951 122.698L529.049 121.302L429.249 114.302L429.152 115.698Z" fill="#57D2A9"/>
<path d="M48.7667 84.5C48.7667 86.5619 50.4381 88.2333 52.5 88.2333C54.5619 88.2333 56.2333 86.5619 56.2333 84.5C56.2333 82.4381 54.5619 80.7667 52.5 80.7667C50.4381 80.7667 48.7667 82.4381 48.7667 84.5ZM119.838 78.5L119.798 77.8012L119.787 77.8018L119.776 77.8028L119.838 78.5ZM198.132 74L198.172 74.6988L198.189 74.6979L198.205 74.6961L198.132 74ZM386.893 78.5L387.049 77.8177L387.018 77.8106L386.987 77.8063L386.893 78.5ZM525.267 69C525.267 71.0619 526.938 72.7333 529 72.7333C531.062 72.7333 532.733 71.0619 532.733 69C532.733 66.9381 531.062 65.2667 529 65.2667C526.938 65.2667 525.267 66.9381 525.267 69ZM480.737 100L480.581 100.682L480.868 100.748L481.115 100.589L480.737 100ZM52.5621 85.1972L119.901 79.1972L119.776 77.8028L52.4379 83.8028L52.5621 85.1972ZM119.879 79.1988L198.172 74.6988L198.091 73.3012L119.798 77.8012L119.879 79.1988ZM198.205 74.6961C216.284 72.7791 244.601 69.5286 268.917 66.758C281.075 65.3726 292.234 64.1071 300.614 63.188C304.805 62.7284 308.298 62.3557 310.875 62.0979C313.475 61.8377 315.092 61.7 315.571 61.7V60.3C315.003 60.3 313.295 60.4487 310.735 60.7048C308.152 60.9633 304.653 61.3367 300.462 61.7964C292.078 62.7158 280.917 63.9816 268.758 65.367C244.439 68.1381 216.13 71.3876 198.058 73.3039L198.205 74.6961ZM315.571 61.7C315.988 61.7 316.885 61.8752 318.297 62.2446C319.676 62.6053 321.463 63.1275 323.605 63.7719C327.882 65.0584 333.56 66.8274 340.14 68.7348C353.302 72.5505 370.124 76.9368 386.799 79.1937L386.987 77.8063C370.414 75.5632 353.669 71.1995 340.53 67.3902C333.958 65.4851 328.302 63.7229 324.008 62.4312C321.865 61.7866 320.058 61.2579 318.652 60.8902C317.279 60.5311 316.201 60.3 315.571 60.3V61.7ZM386.736 79.1823L480.581 100.682L480.894 99.3177L387.049 77.8177L386.736 79.1823ZM481.115 100.589L529.378 69.589L528.622 68.411L480.359 99.411L481.115 100.589Z" fill="#F4A76F"/>
</svg>
