<svg width="23" height="22" viewBox="0 0 23 22" fill="none" xmlns="http://www.w3.org/2000/svg">
<g clip-path="url(#clip0_33_2956)">
<rect x="0.0866699" y="0.0344238" width="21.9655" height="21.9655" rx="4.7069" fill="#D4009B"/>
<path d="M16.5608 6.70254C16.5608 7.35242 16.034 7.87926 15.3841 7.87926C14.7342 7.87926 14.2074 7.35242 14.2074 6.70254C14.2074 6.05265 14.7342 5.52581 15.3841 5.52581C16.034 5.52581 16.5608 6.05265 16.5608 6.70254Z" fill="white"/>
<path fill-rule="evenodd" clip-rule="evenodd" d="M11.0694 14.9396C13.2357 14.9396 14.9919 13.1835 14.9919 11.0172C14.9919 8.8509 13.2357 7.09478 11.0694 7.09478C8.90315 7.09478 7.14702 8.8509 7.14702 11.0172C7.14702 13.1835 8.90315 14.9396 11.0694 14.9396ZM11.0694 13.3706C12.3692 13.3706 13.4229 12.317 13.4229 11.0172C13.4229 9.71742 12.3692 8.66374 11.0694 8.66374C9.76966 8.66374 8.71599 9.71742 8.71599 11.0172C8.71599 12.317 9.76966 13.3706 11.0694 13.3706Z" fill="white"/>
<path fill-rule="evenodd" clip-rule="evenodd" d="M3.22461 10.7034C3.22461 8.06729 3.22461 6.74923 3.73763 5.74237C4.1889 4.85671 4.90896 4.13665 5.79462 3.68538C6.80148 3.17236 8.11953 3.17236 10.7556 3.17236H11.3832C14.0193 3.17236 15.3374 3.17236 16.3443 3.68538C17.2299 4.13665 17.95 4.85671 18.4012 5.74237C18.9143 6.74923 18.9143 8.06729 18.9143 10.7034V11.331C18.9143 13.9671 18.9143 15.2851 18.4012 16.292C17.95 17.1777 17.2299 17.8977 16.3443 18.349C15.3374 18.862 14.0193 18.862 11.3832 18.862H10.7556C8.11953 18.862 6.80148 18.862 5.79462 18.349C4.90896 17.8977 4.1889 17.1777 3.73763 16.292C3.22461 15.2851 3.22461 13.9671 3.22461 11.331V10.7034ZM10.7556 4.74133H11.3832C12.7272 4.74133 13.6408 4.74255 14.3469 4.80025C15.0348 4.85645 15.3866 4.95831 15.632 5.08334C16.2224 5.38419 16.7024 5.86423 17.0033 6.45467C17.1283 6.70005 17.2302 7.05182 17.2864 7.73968C17.3441 8.44586 17.3453 9.35945 17.3453 10.7034V11.331C17.3453 12.6749 17.3441 13.5885 17.2864 14.2947C17.2302 14.9826 17.1283 15.3343 17.0033 15.5797C16.7024 16.1702 16.2224 16.6502 15.632 16.951C15.3866 17.0761 15.0348 17.1779 14.3469 17.2341C13.6408 17.2918 12.7272 17.2931 11.3832 17.2931H10.7556C9.4117 17.2931 8.4981 17.2918 7.79193 17.2341C7.10407 17.1779 6.7523 17.0761 6.50692 16.951C5.91648 16.6502 5.43643 16.1702 5.13559 15.5797C5.01056 15.3343 4.90869 14.9826 4.85249 14.2947C4.7948 13.5885 4.79357 12.6749 4.79357 11.331V10.7034C4.79357 9.35945 4.7948 8.44586 4.85249 7.73968C4.90869 7.05182 5.01056 6.70005 5.13559 6.45467C5.43643 5.86423 5.91648 5.38419 6.50692 5.08334C6.7523 4.95831 7.10407 4.85645 7.79193 4.80025C8.4981 4.74255 9.4117 4.74133 10.7556 4.74133Z" fill="white"/>
</g>
<defs>
<clipPath id="clip0_33_2956">
<rect width="21.9655" height="21.9655" fill="white" transform="translate(0.0690918 0.0172119)"/>
</clipPath>
</defs>
</svg>
