<svg width="22" height="22" viewBox="0 0 22 22" fill="none" xmlns="http://www.w3.org/2000/svg">
<g clip-path="url(#clip0_33_2961)">
<path d="M0.244057 6.26409C0.344887 4.71178 1.59293 3.49523 3.14661 3.41826C5.39644 3.30679 8.61211 3.17236 11.035 3.17236C13.4579 3.17236 16.6736 3.30679 18.9234 3.41826C20.4771 3.49523 21.7251 4.71178 21.826 6.2641C21.9226 7.75133 22.0178 9.58132 22.0178 11.0172C22.0178 12.4531 21.9226 14.2831 21.826 15.7703C21.7251 17.3226 20.4771 18.5392 18.9234 18.6161C16.6736 18.7276 13.4579 18.862 11.035 18.862C8.61211 18.862 5.39645 18.7276 3.14661 18.6161C1.59293 18.5392 0.344887 17.3226 0.244057 15.7703C0.147454 14.2831 0.0522461 12.4531 0.0522461 11.0172C0.0522461 9.58132 0.147454 7.75133 0.244057 6.26409Z" fill="#D4009B"/>
<path d="M8.68164 7.87927V14.1551L14.9575 11.0172L8.68164 7.87927Z" fill="white"/>
</g>
<defs>
<clipPath id="clip0_33_2961">
<rect width="21.9655" height="21.9655" fill="white" transform="translate(0.034668 0.0172119)"/>
</clipPath>
</defs>
</svg>
