<svg viewBox="0 0 250 23" fill="none" xmlns="http://www.w3.org/2000/svg">
<path d="M27.496 7.448C26.5067 8.26933 25.3587 9.632 24.052 11.536H25.424V22.176H18.676V21.756H8.54V22.176H1.792V11.536H21.56L20.244 10.136L0.896 11.116C0.858667 10.78 0.821333 10.5187 0.784 10.332C0.541333 8.316 0.28 6.73867 0 5.6L3.752 5.516L6.72 0.588001L14.392 1.064L11.956 5.348L16.296 5.236C15.6427 4.32133 14.98 3.22 14.308 1.932L20.384 0.644C21.504 2.23067 22.6893 3.584 23.94 4.704C25.1907 5.824 26.376 6.73867 27.496 7.448ZM8.54 15.736V17.024H18.676V15.736H8.54Z" fill="#334155"/>
<path d="M41.832 17.08H54.992C54.992 17.9013 54.9547 18.6573 54.88 19.348C54.8053 20.3747 54.2827 21.1027 53.312 21.532C52.3413 21.9427 50.9413 22.148 49.112 22.148H41.216C41.0853 21.532 40.8707 20.9627 40.572 20.44C38.2387 20.1227 36.148 19.9547 34.3 19.936C34.972 18.2187 35.4293 16.6693 35.672 15.288H47.376V14.952H34.86V13.748L34.692 14.616C33.9453 18.4053 33.4133 20.9533 33.096 22.26C30.6693 21.6627 28.812 21.2613 27.524 21.056C28.1027 19.4507 28.5787 17.9107 28.952 16.436C29.3253 14.9427 29.6893 13.328 30.044 11.592L31.948 11.9C30.772 11.2653 29.3813 10.7333 27.776 10.304L30.38 6.02C31.276 6.28133 32.4147 6.748 33.796 7.42L34.72 7.84C34.72 7.26133 34.6733 6.58 34.58 5.796L35.756 5.74L36.176 5.292C35.84 4.91867 35.448 4.51733 35 4.088L33.712 6.776C31.7707 5.88 29.7547 5.22667 27.664 4.816L30.044 0.336001C30.8653 0.541334 32.0693 0.970667 33.656 1.624L35.084 2.184L35.476 1.344L35.84 1.68C36.176 1.15733 36.4373 0.662667 36.624 0.196001L38.808 0.812001L37.268 3.108L37.604 3.472C38.2947 2.52 38.9293 1.49333 39.508 0.392L41.272 0.952001H48.608V2.464H41.272V1.736L40.796 2.408C40.5533 2.8 40.292 3.18267 40.012 3.556L40.712 3.444C40.768 3.948 40.8333 4.452 40.908 4.956C41.0013 5.46 41.0667 5.824 41.104 6.048C41.2533 6.90667 41.3467 7.49467 41.384 7.812L39.816 8.036L39.76 7.56L39.34 7.644L39.228 12.684H36.54L36.624 8.008L35.336 8.148L35.112 8.568L36.176 8.54V9.436C36.176 10.5187 36.12 11.5827 36.008 12.628C35.8587 12.6093 35.7093 12.5907 35.56 12.572C35.4293 12.5533 35.2707 12.544 35.084 12.544L35 12.992H54.32V16.8H41.888L41.832 17.08ZM48.72 2.912L49.448 1.344L49.812 1.68C50.148 1.15733 50.4093 0.662667 50.596 0.196001L52.78 0.812001C52.0893 1.85733 51.576 2.61333 51.24 3.08L51.576 3.472C52.2667 2.55733 52.9107 1.53067 53.508 0.392L55.3 1.344L53.788 3.584L54.684 3.444C54.852 4.844 55.0387 6.08533 55.244 7.168L55.356 7.812L53.788 8.036L53.732 7.56L53.312 7.644L53.2 12.684H50.512L50.596 8.008C50.4093 8.02667 49.7467 8.092 48.608 8.204C48.608 7.252 48.552 6.44933 48.44 5.796L49.756 5.74L50.148 5.32C49.7747 4.872 49.3173 4.396 48.776 3.892V4.564H41.16V2.912H48.72ZM53.228 4.424L52.444 5.656C52.7053 5.656 53.0227 5.63733 53.396 5.6L53.228 4.424ZM38.528 5.656L39.424 5.6C39.4053 5.39467 39.3587 5.068 39.284 4.62L38.528 5.656ZM41.692 5.068H48.16V6.608H41.692V5.068ZM48.16 8.568H41.692V7.056H48.16V8.568ZM39.704 12.544C39.648 10.8827 39.62 9.52 39.62 8.456L41.048 8.372C41.048 10.052 41.0667 11.3867 41.104 12.376C40.8613 12.432 40.3947 12.488 39.704 12.544ZM54.992 8.372C54.992 9.11867 55.0107 9.76267 55.048 10.304C55.0853 10.8267 55.1507 11.508 55.244 12.348C54.348 12.46 53.8253 12.5253 53.676 12.544C53.62 10.8827 53.592 9.52 53.592 8.456L54.992 8.372ZM48.664 12.516C48.7947 11.3213 48.86 10.0053 48.86 8.568L50.148 8.54V9.436C50.148 10.5187 50.092 11.5827 49.98 12.628C49.2333 12.5533 48.7947 12.516 48.664 12.516ZM33.068 12.096L34.58 12.348C34.7107 11.6947 34.7947 11.1253 34.832 10.64C34.8693 10.1547 34.888 9.58533 34.888 8.932L33.068 12.096ZM48.356 12.684H41.496V9.044H48.356V12.684ZM45.668 10.584H44.184V11.256H45.668V10.584ZM41.3 18.872L41.188 19.18C42.8867 19.236 44.9307 19.264 47.32 19.264C47.7307 19.264 48.0107 19.2453 48.16 19.208C48.328 19.152 48.4213 19.04 48.44 18.872H41.3Z" fill="#334155"/>
<path d="M75.768 18.06V18.452H82.684V21.952H62.328V18.984C62.16 20.2533 61.8987 21.392 61.544 22.4C60.2187 21.7467 59.136 21.2427 58.296 20.888C57.456 20.5333 56.56 20.272 55.608 20.104C55.9813 19.096 56.2613 18.116 56.448 17.164C56.6347 16.1933 56.7653 14.9053 56.84 13.3C56.9333 11.6947 56.98 9.42667 56.98 6.496V1.232L82.656 1.26L82.684 5.712H62.832C62.8133 5.88 62.804 6.02 62.804 6.132C62.8227 6.22533 62.832 6.31867 62.832 6.412V7.812C62.832 9.11867 62.8133 10.668 62.776 12.46C63.3733 12.348 63.8213 12.2267 64.12 12.096C64.4373 11.9653 64.6893 11.788 64.876 11.564H63.196V9.044H65.38V8.736H63.476C63.4947 7.952 63.4013 7.12133 63.196 6.244H64.316C66.4067 6.244 68.936 6.17867 71.904 6.048C71.7173 6.98133 71.624 7.812 71.624 8.54L69.776 8.624V9.044H71.904V11.564H69.944C70.6907 11.956 71.5587 12.208 72.548 12.32L72.296 12.544C72.7627 12.432 73.1547 12.3107 73.472 12.18C73.808 12.0307 74.1067 11.8253 74.368 11.564H72.38V9.044H74.676V8.736H72.464C72.4827 7.91467 72.38 7.084 72.156 6.244H73.416C75.7307 6.244 78.5213 6.17867 81.788 6.048C81.5827 6.92533 81.48 7.756 81.48 8.54L79.24 8.624V9.044H81.788V11.564H79.548C80.2387 12.012 81.172 12.3387 82.348 12.544C81.8253 13.2533 81.4613 14.2893 81.256 15.652C80.3413 15.316 79.6693 14.7093 79.24 13.832V15.54H75.768V15.96H81.76V18.06H75.768ZM62.748 12.992C62.692 15.008 62.5707 16.828 62.384 18.452H63.756V15.848H69.384V18.452H70.168V15.204H71.008C70.5227 14.9427 70.112 14.6813 69.776 14.42V15.54H65.38V14.196C64.988 14.868 64.4467 15.3533 63.756 15.652C63.6813 15.1107 63.5693 14.6347 63.42 14.224C63.2707 13.7947 63.0467 13.384 62.748 12.992ZM72.632 15.204C72.352 14.644 72.016 14.0933 71.624 13.552C71.4373 13.944 71.2507 14.4947 71.064 15.204H72.632ZM74.676 13.888C74.4147 14.3173 73.9947 14.756 73.416 15.204H74.676V13.888Z" fill="#334155"/>
<path d="M110.768 14.224V19.544H102.788V22.316H96.656V19.544H84.448V14.224H88.088V12.068C87.7147 12.46 87.3133 12.8333 86.884 13.188C86.4173 11.8067 85.9693 10.6213 85.54 9.632C85.1293 8.624 84.6347 7.66267 84.056 6.748C85.008 6.11333 85.764 5.25467 86.324 4.172C86.9027 3.08933 87.2013 1.86667 87.22 0.504L93.548 0.560001C93.5107 0.989334 93.4547 1.44667 93.38 1.932H109.704V6.972H102.788V8.176H108.948V12.628H102.788V14.224H110.768ZM96.656 6.972H91.756L91.112 8.176H96.656V6.972ZM94.108 12.628V14.224H96.656V12.628H94.108Z" fill="#334155"/>
<path d="M136.108 14.672C136.481 15.2507 136.957 15.6987 137.536 16.016C138.115 16.3333 138.833 16.5387 139.692 16.632C139.281 17.416 138.927 18.2467 138.628 19.124C138.348 19.9827 138.059 21.0747 137.76 22.4C136.715 21.7653 135.781 20.916 134.96 19.852C134.979 19.9453 134.988 20.076 134.988 20.244C134.988 21.2893 134.465 21.868 133.42 21.98C132.319 22.0547 131.311 22.092 130.396 22.092C129.444 22.092 128.529 22.0547 127.652 21.98C127.036 21.924 126.579 21.784 126.28 21.56C126 21.3173 125.86 20.972 125.86 20.524V20.44C125.188 21.1307 124.339 21.784 123.312 22.4C122.995 20.888 122.668 19.6653 122.332 18.732L122.5 20.412L122.556 21L121.184 21.168L119.896 21.336C119.803 18.1253 119.756 15.652 119.756 13.916L122.164 13.776C122.164 15.0453 122.173 15.9507 122.192 16.492C123.461 16.212 124.385 15.6053 124.964 14.672H122.5V13.048L119.84 13.468L119.784 12.88L119.252 12.964V22.204H115.192V13.524C114.203 13.6547 113.157 13.7667 112.056 13.86C112.056 12.18 111.981 10.808 111.832 9.744L113.54 9.688L114.268 8.764C113.876 8.27867 113.437 7.77467 112.952 7.252C112.467 6.72933 112.047 6.30933 111.692 5.992L113.26 2.156C113.652 2.548 113.848 2.744 113.848 2.744C114.296 1.99733 114.716 1.148 115.108 0.196001L118.748 1.204C117.609 3.07067 116.76 4.41467 116.2 5.236L116.536 5.628C117.656 3.948 118.645 2.24933 119.504 0.532L122.864 1.68H127.764L127.96 1.036H132.58L132.384 1.68H138.292V14.672H136.108ZM121.604 5.824L122.108 8.932C122.22 9.492 122.351 10.2573 122.5 11.228V3.024L120.568 5.992L121.604 5.824ZM126.728 4.984V5.516L127.736 5.096C128.128 5.30133 128.417 5.488 128.604 5.656C128.753 5.488 128.903 5.264 129.052 4.984H126.728ZM134.12 5.404V4.984H131.32L131.18 5.404H134.12ZM126.728 7C127.195 6.79467 127.493 6.65467 127.624 6.58C127.363 6.37467 127.064 6.16933 126.728 5.964V7ZM131.432 7.952C131.693 7.76533 131.945 7.52267 132.188 7.224H130.368L131.432 7.952ZM127.708 9.044C127.465 8.68933 127.139 8.27867 126.728 7.812V9.128L127.708 9.044ZM119.28 9.492C119.187 8.89467 119.121 8.47467 119.084 8.232L118.748 8.736C118.673 8.848 118.589 8.96933 118.496 9.1C118.403 9.23067 118.3 9.38 118.188 9.548L119.28 9.492ZM129.108 8.372C128.828 8.61467 128.539 8.82933 128.24 9.016C128.781 8.96 129.239 8.876 129.612 8.764L129.108 8.372ZM133.728 9.912L132.804 11.004H134.12V8.68C133.896 8.96 133.616 9.25867 133.28 9.576L133.728 9.912ZM126.728 11.004H127.428C127.241 10.5187 127.008 10.052 126.728 9.604V11.004ZM131.964 10.472C131.74 10.6027 131.367 10.78 130.844 11.004H132.524L131.964 10.472ZM112.336 14.168C112.691 14.168 113.185 14.1493 113.82 14.112L114.716 14.084V15.036C114.716 16.268 114.697 17.36 114.66 18.312C114.623 19.264 114.529 20.328 114.38 21.504C114.231 21.4853 113.913 21.448 113.428 21.392C112.961 21.3173 112.411 21.28 111.776 21.28C112.019 20.048 112.168 18.9373 112.224 17.948C112.299 16.94 112.336 15.68 112.336 14.168ZM129.948 14.672H126.028C126.924 15.232 127.708 15.6613 128.38 15.96H129.024C128.875 15.7733 128.595 15.4747 128.184 15.064L129.948 14.672ZM133.336 15.344C133.84 15.1387 134.344 14.9147 134.848 14.672H132.496C132.963 15.064 133.243 15.288 133.336 15.344ZM131.236 17.668C131.497 17.6493 131.628 17.5467 131.628 17.36C131.628 17.3413 131.591 17.164 131.516 16.828L130.088 17.22L129.416 16.408L129.276 17.192C129.257 17.248 129.248 17.332 129.248 17.444C129.248 17.6307 129.341 17.724 129.528 17.724C130.499 17.724 131.068 17.7053 131.236 17.668ZM131.712 16.8C132.048 16.856 132.375 16.884 132.692 16.884C132.935 16.884 133.121 16.8747 133.252 16.856L133.084 16.408L131.712 16.8Z" fill="#334155"/>
<path d="M163.492 11.872C164.071 12.2453 164.575 12.5347 165.004 12.74C165.433 12.9453 165.9 13.104 166.404 13.216C166.703 14.7653 166.852 16.212 166.852 17.556C166.852 18.8627 166.703 19.8613 166.404 20.552C166.199 21.0373 165.956 21.392 165.676 21.616C165.396 21.8213 165.153 21.9427 164.948 21.98C164.743 21.9987 164.491 22.008 164.192 22.008H161.42C160.636 22.008 160.029 21.9427 159.6 21.812C159.189 21.6627 158.891 21.42 158.704 21.084C158.536 20.7293 158.452 20.216 158.452 19.544C158.452 19.3573 158.471 18.984 158.508 18.424L159.04 11.956L158.424 12.012C158.349 14.7187 158.191 16.8 157.948 18.256C157.705 19.6933 157.369 21.0373 156.94 22.288C155.185 21.6907 153.748 21.2613 152.628 21L150.948 21.168L149.436 21.336C149.324 18.4427 149.268 15.9693 149.268 13.916L152.124 13.776C152.124 15.7733 152.199 17.5187 152.348 19.012C152.721 18.172 153.02 17.2573 153.244 16.268C153.468 15.2787 153.617 14.0187 153.692 12.488L153.188 12.544C153.113 11.592 153.039 10.7987 152.964 10.164C152.889 9.52934 152.759 8.736 152.572 7.784L153.944 7.7L154.756 5.908H152.236V3.416L150.22 5.992L151.452 5.824C151.863 7.616 152.161 9.02533 152.348 10.052C152.553 11.06 152.703 12.0587 152.796 13.048L149.352 13.496L149.296 12.88L148.764 12.964V22.204H143.808V13.524C142.651 13.6547 141.419 13.7667 140.112 13.86C140.112 12.18 140.037 10.808 139.888 9.744L141.876 9.688L142.772 8.764C142.287 8.26 141.755 7.74667 141.176 7.224C140.597 6.70133 140.103 6.29067 139.692 5.992L141.54 2.156L142.268 2.744C142.697 2.14667 143.183 1.29733 143.724 0.196001L148.064 1.204L147.588 1.848C146.449 3.43467 145.609 4.564 145.068 5.236L145.432 5.628C146.72 3.948 147.905 2.24933 148.988 0.532L152.796 1.624H156.436V0.588001H161.56V1.624H166.516V5.908H164.472C165.48 6.86 166.553 7.74667 167.692 8.568C167.151 8.99733 166.581 9.548 165.984 10.22C165.405 10.892 164.929 11.536 164.556 12.152L163.828 11.452L163.52 11.48L163.492 11.872ZM159.768 5.908L159.124 7.364L160.44 7.28C160.179 6.90667 159.992 6.62667 159.88 6.44L161.924 5.908H159.768ZM148.54 8.148C148.017 8.78267 147.644 9.24933 147.42 9.548L148.792 9.492L148.54 8.148ZM163.128 16.072V16.128C163.128 16.2587 163.156 16.3707 163.212 16.464C163.287 16.5387 163.371 16.576 163.464 16.576C163.557 16.576 163.641 16.5293 163.716 16.436C163.791 16.3427 163.828 16.212 163.828 16.044C163.828 15.1107 163.697 13.9347 163.436 12.516L163.128 16.072ZM140.476 14.168C140.849 14.168 141.428 14.1493 142.212 14.112L143.332 14.084C143.332 15.7453 143.304 17.0707 143.248 18.06C143.211 19.0307 143.08 20.1787 142.856 21.504C142.725 21.4853 142.371 21.448 141.792 21.392C141.232 21.3173 140.56 21.28 139.776 21.28C140.075 20.048 140.261 18.9373 140.336 17.948C140.429 16.9587 140.476 15.6987 140.476 14.168Z" fill="#334155"/>
<path d="M200.793 5.236L200.345 6.44C199.58 8.49333 199.048 9.86533 198.749 10.556C199.981 12.46 200.597 14.1587 200.597 15.652C200.597 17.3507 200.149 18.6573 199.253 19.572C198.376 20.468 197.163 20.8973 195.613 20.86C195.408 19.1427 195.044 17.752 194.521 16.688V22.064H189.285V4.536L188.417 5.796H188.641V9.548H185.253L185.001 9.772L184.637 10.08H188.613V22.232H183.405V21.952H180.325V22.232H175.061V15.904L174.249 16.24C174.081 14.2427 173.699 12.516 173.101 11.06C174.427 10.8547 175.556 10.6493 176.489 10.444C177.423 10.22 178.291 9.92133 179.093 9.548H173.773V5.796H176.769V5.208H174.305V1.4H176.769V0.644H182.453V1.4H185.449V2.38C185.524 2.23067 185.589 2.09067 185.645 1.96C185.72 1.81067 185.785 1.68 185.841 1.568L186.093 0.980001L189.285 2.156V1.148H199.365L200.793 5.236ZM182.453 5.208V5.796H183.461L183.881 5.208H182.453ZM194.521 5.88V9.212C195.156 7.90533 195.483 6.79467 195.501 5.88H194.521ZM194.521 15.652C194.783 15.54 194.997 15.372 195.165 15.148C195.333 14.924 195.417 14.6533 195.417 14.336C195.417 13.7013 195.119 12.9733 194.521 12.152V15.652ZM180.325 14.224H183.405V13.496H180.325V14.224ZM180.325 17.36V18.116H183.405V17.36H180.325Z" fill="#334155"/>
<path d="M228.737 11.06V14.112H225.713C226.423 14.5413 227.375 14.9333 228.569 15.288C228.569 17.3787 228.504 18.9093 228.373 19.88C228.261 20.832 228.065 21.4573 227.785 21.756C227.505 22.036 227.076 22.176 226.497 22.176C225.471 22.176 224.528 22.1013 223.669 21.952C222.829 21.784 221.933 21.532 220.981 21.196C220.123 20.8973 219.283 20.5333 218.461 20.104C216.931 20.8507 214.653 21.5693 211.629 22.26C210.397 21.42 209.175 20.7293 207.961 20.188C207.775 20.916 207.439 21.616 206.953 22.288L204.573 21.616C202.893 21.1307 201.829 20.832 201.381 20.72C201.848 20.1973 202.184 19.6467 202.389 19.068C202.613 18.4707 202.753 17.8173 202.809 17.108C202.865 16.3987 202.893 15.4 202.893 14.112H201.801V11.06H213.029C212.861 9.436 212.777 7.21467 212.777 4.396V2.548C212.815 2.51067 212.469 2.912 211.741 3.752L211.013 4.62L212.021 4.508C212.133 6.72933 212.348 8.708 212.665 10.444L210.173 10.752L210.089 10.164C208.167 10.3133 206.888 10.4067 206.253 10.444C204.013 10.5933 202.483 10.7053 201.661 10.78L201.549 7.532C202.52 7.49467 203.36 7.476 204.069 7.476C203.192 6.3 202.371 5.376 201.605 4.704L203.397 2.156L203.901 2.688C204.405 2.016 204.872 1.288 205.301 0.504L208.605 1.652C207.429 3.12667 206.543 4.19067 205.945 4.844L206.281 5.18C207.401 3.87333 208.484 2.548 209.529 1.204L212.777 2.436L212.805 0.616H218.069V2.828L218.545 2.156L218.965 2.632C219.507 1.86667 219.899 1.232 220.141 0.728001L223.501 1.512C222.568 3.04267 221.821 4.20933 221.261 5.012L221.597 5.376C222.699 3.752 223.651 2.28667 224.453 0.980001L228.121 1.904L226.301 4.648L227.617 4.508C227.692 5.59067 228.056 7.56933 228.709 10.444L225.853 10.752C225.816 10.6213 225.779 10.4253 225.741 10.164L222.689 10.416C223.249 10.6213 223.753 10.836 224.201 11.06H228.737ZM218.069 7.504C218.573 7.504 218.965 7.49467 219.245 7.476L218.069 6.02V7.504ZM209.781 7.336C209.744 7.07467 209.707 6.68267 209.669 6.16C209.427 6.45867 209.296 6.61733 209.277 6.636C208.829 7.14 208.615 7.38267 208.633 7.364C209.156 7.364 209.539 7.35467 209.781 7.336ZM225.265 7.336C225.228 7.112 225.191 6.79467 225.153 6.384L224.481 7.364L225.265 7.336ZM218.237 10.808C218.256 10.864 218.265 10.948 218.265 11.06H220.533L220.953 10.584C220.188 10.6213 219.283 10.696 218.237 10.808ZM214.177 15.512C214.028 15.176 213.851 14.7093 213.645 14.112H209.193C210.836 14.7653 212.497 15.232 214.177 15.512ZM219.693 15.036C220.253 14.6253 220.645 14.3173 220.869 14.112H219.133C219.283 14.392 219.469 14.7 219.693 15.036ZM224.117 15.876C224.155 15.54 224.192 14.952 224.229 14.112H221.261L224.117 15.876ZM214.401 15.988C213.953 16.4173 213.291 17.1453 212.413 18.172C213.403 17.948 214.345 17.6773 215.241 17.36C214.924 16.912 214.644 16.4547 214.401 15.988ZM223.445 17.36C223.595 17.4347 223.725 17.3973 223.837 17.248C223.949 17.08 224.043 16.6787 224.117 16.044L222.885 17.136L223.445 17.36ZM208.353 17.584C208.316 18.1813 208.279 18.6293 208.241 18.928C208.895 18.8533 209.716 18.7227 210.705 18.536C209.828 18.2373 209.044 17.92 208.353 17.584Z" fill="#334155"/>
<path d="M239.965 0C241.739 0 243.372 0.298667 244.865 0.896C246.377 1.49333 247.572 2.324 248.449 3.388C249.327 4.452 249.765 5.67467 249.765 7.056C249.765 8.176 249.495 9.13733 248.953 9.94C248.412 10.7427 247.721 11.396 246.881 11.9L245.397 12.74C244.595 13.188 244.063 13.496 243.801 13.664C243.372 13.9253 243.073 14.2147 242.905 14.532C242.737 14.8493 242.653 15.2227 242.653 15.652H236.241C236.241 14.2333 236.577 13.048 237.249 12.096C237.921 11.1253 239.051 10.2853 240.637 9.576C241.347 9.25867 241.86 8.91333 242.177 8.54C242.513 8.148 242.681 7.70933 242.681 7.224C242.681 6.68267 242.42 6.216 241.897 5.824C241.393 5.432 240.749 5.236 239.965 5.236C238.901 5.236 238.071 5.49733 237.473 6.02C236.895 6.54267 236.605 7.28 236.605 8.232C236.605 8.60533 236.661 9.03467 236.773 9.52C235.28 9.09067 233.049 8.876 230.081 8.876C230.063 8.708 230.053 8.47467 230.053 8.176C230.053 6.608 230.464 5.208 231.285 3.976C232.125 2.72533 233.292 1.75467 234.785 1.064C236.297 0.354667 238.024 0 239.965 0ZM242.681 22.736H236.185V17.752H242.681V22.736Z" fill="#334155"/>
</svg>
