<svg width="530" height="222" viewBox="0 0 530 222" fill="none" xmlns="http://www.w3.org/2000/svg">
<path d="M1.63778 25V24.233L4.51847 21.0795C4.85653 20.7102 5.13494 20.3892 5.35369 20.1165C5.57244 19.8409 5.73438 19.5824 5.83949 19.3409C5.94744 19.0966 6.00142 18.8409 6.00142 18.5739C6.00142 18.267 5.92756 18.0014 5.77983 17.777C5.63494 17.5526 5.43608 17.3793 5.18324 17.2571C4.9304 17.1349 4.64631 17.0739 4.33097 17.0739C3.99574 17.0739 3.70312 17.1435 3.45312 17.2827C3.20597 17.419 3.0142 17.6108 2.87784 17.858C2.74432 18.1051 2.67756 18.3949 2.67756 18.7273H1.67188C1.67188 18.2159 1.78977 17.767 2.02557 17.3807C2.26136 16.9943 2.58239 16.6932 2.98864 16.4773C3.39773 16.2614 3.85653 16.1534 4.36506 16.1534C4.87642 16.1534 5.32955 16.2614 5.72443 16.4773C6.11932 16.6932 6.42898 16.9844 6.65341 17.3509C6.87784 17.7173 6.99006 18.125 6.99006 18.5739C6.99006 18.8949 6.93182 19.2088 6.81534 19.5156C6.7017 19.8196 6.50284 20.1591 6.21875 20.5341C5.9375 20.9062 5.54688 21.3608 5.04688 21.8977L3.08665 23.9943V24.0625H7.14347V25H1.63778ZM11.75 25.1193C11.108 25.1193 10.5611 24.9446 10.1094 24.5952C9.65767 24.2429 9.3125 23.733 9.07386 23.0653C8.83523 22.3949 8.71591 21.5852 8.71591 20.6364C8.71591 19.6932 8.83523 18.8878 9.07386 18.2202C9.31534 17.5497 9.66193 17.0384 10.1136 16.6861C10.5682 16.331 11.1136 16.1534 11.75 16.1534C12.3864 16.1534 12.9304 16.331 13.3821 16.6861C13.8366 17.0384 14.1832 17.5497 14.4219 18.2202C14.6634 18.8878 14.7841 19.6932 14.7841 20.6364C14.7841 21.5852 14.6648 22.3949 14.4261 23.0653C14.1875 23.733 13.8423 24.2429 13.3906 24.5952C12.9389 24.9446 12.392 25.1193 11.75 25.1193ZM11.75 24.1818C12.3864 24.1818 12.8807 23.875 13.233 23.2614C13.5852 22.6477 13.7614 21.7727 13.7614 20.6364C13.7614 19.8807 13.6804 19.2372 13.5185 18.706C13.3594 18.1747 13.1293 17.7699 12.8281 17.4915C12.5298 17.2131 12.1705 17.0739 11.75 17.0739C11.1193 17.0739 10.6264 17.3849 10.2713 18.0071C9.91619 18.6264 9.73864 19.5028 9.73864 20.6364C9.73864 21.392 9.81818 22.0341 9.97727 22.5625C10.1364 23.0909 10.3651 23.4929 10.6634 23.7685C10.9645 24.044 11.3267 24.1818 11.75 24.1818ZM19.25 25.1193C18.608 25.1193 18.0611 24.9446 17.6094 24.5952C17.1577 24.2429 16.8125 23.733 16.5739 23.0653C16.3352 22.3949 16.2159 21.5852 16.2159 20.6364C16.2159 19.6932 16.3352 18.8878 16.5739 18.2202C16.8153 17.5497 17.1619 17.0384 17.6136 16.6861C18.0682 16.331 18.6136 16.1534 19.25 16.1534C19.8864 16.1534 20.4304 16.331 20.8821 16.6861C21.3366 17.0384 21.6832 17.5497 21.9219 18.2202C22.1634 18.8878 22.2841 19.6932 22.2841 20.6364C22.2841 21.5852 22.1648 22.3949 21.9261 23.0653C21.6875 23.733 21.3423 24.2429 20.8906 24.5952C20.4389 24.9446 19.892 25.1193 19.25 25.1193ZM19.25 24.1818C19.8864 24.1818 20.3807 23.875 20.733 23.2614C21.0852 22.6477 21.2614 21.7727 21.2614 20.6364C21.2614 19.8807 21.1804 19.2372 21.0185 18.706C20.8594 18.1747 20.6293 17.7699 20.3281 17.4915C20.0298 17.2131 19.6705 17.0739 19.25 17.0739C18.6193 17.0739 18.1264 17.3849 17.7713 18.0071C17.4162 18.6264 17.2386 19.5028 17.2386 20.6364C17.2386 21.392 17.3182 22.0341 17.4773 22.5625C17.6364 23.0909 17.8651 23.4929 18.1634 23.7685C18.4645 24.044 18.8267 24.1818 19.25 24.1818ZM26.75 25.1193C26.108 25.1193 25.5611 24.9446 25.1094 24.5952C24.6577 24.2429 24.3125 23.733 24.0739 23.0653C23.8352 22.3949 23.7159 21.5852 23.7159 20.6364C23.7159 19.6932 23.8352 18.8878 24.0739 18.2202C24.3153 17.5497 24.6619 17.0384 25.1136 16.6861C25.5682 16.331 26.1136 16.1534 26.75 16.1534C27.3864 16.1534 27.9304 16.331 28.3821 16.6861C28.8366 17.0384 29.1832 17.5497 29.4219 18.2202C29.6634 18.8878 29.7841 19.6932 29.7841 20.6364C29.7841 21.5852 29.6648 22.3949 29.4261 23.0653C29.1875 23.733 28.8423 24.2429 28.3906 24.5952C27.9389 24.9446 27.392 25.1193 26.75 25.1193ZM26.75 24.1818C27.3864 24.1818 27.8807 23.875 28.233 23.2614C28.5852 22.6477 28.7614 21.7727 28.7614 20.6364C28.7614 19.8807 28.6804 19.2372 28.5185 18.706C28.3594 18.1747 28.1293 17.7699 27.8281 17.4915C27.5298 17.2131 27.1705 17.0739 26.75 17.0739C26.1193 17.0739 25.6264 17.3849 25.2713 18.0071C24.9162 18.6264 24.7386 19.5028 24.7386 20.6364C24.7386 21.392 24.8182 22.0341 24.9773 22.5625C25.1364 23.0909 25.3651 23.4929 25.6634 23.7685C25.9645 24.044 26.3267 24.1818 26.75 24.1818ZM36.044 17.704H36.908V24.124H36.044V17.704ZM33.44 19.492V20.356H39.56V19.492H33.44ZM33.44 18.004V18.868H39.56V18.004H33.44ZM32.576 17.356H40.46V21.004H32.576V17.356ZM31.82 21.736H40.652V22.504H32.672V25.96H31.82V21.736ZM40.412 21.736H41.276V25.036C41.276 25.468 41.204 25.684 40.904 25.816C40.592 25.936 40.088 25.948 39.308 25.948C39.272 25.72 39.164 25.42 39.056 25.204C39.608 25.216 40.076 25.216 40.208 25.204C40.364 25.204 40.412 25.168 40.412 25.024V21.736ZM33.428 23.908C34.808 23.86 36.932 23.776 39.008 23.668L38.996 24.4C36.992 24.52 34.916 24.628 33.488 24.7L33.428 23.908ZM37.868 22.924L38.552 22.708C39.08 23.356 39.62 24.256 39.8 24.868L39.092 25.108C38.912 24.508 38.396 23.596 37.868 22.924ZM33.908 14.92H34.784V17.188H33.908V14.92ZM38.132 14.92H39.008V17.188H38.132V14.92ZM31.316 15.652H41.684V16.432H31.316V15.652Z" fill="#334155"/>
<path d="M58.5 21H529.5" stroke="#DEE2E6"/>
<path d="M4.59268 58.2727V67H3.53587V59.3807H3.48473L1.35405 60.7955V59.7216L3.53587 58.2727H4.59268ZM9.8299 67.1193C9.3299 67.1193 8.87962 67.0199 8.47905 66.821C8.07848 66.6222 7.75746 66.3494 7.51598 66.0028C7.2745 65.6562 7.1424 65.2614 7.11967 64.8182H8.1424C8.18217 65.2131 8.36115 65.5398 8.67933 65.7983C9.00036 66.054 9.38388 66.1818 9.8299 66.1818C10.1879 66.1818 10.506 66.098 10.7844 65.9304C11.0657 65.7628 11.2859 65.5327 11.445 65.2401C11.6069 64.9446 11.6879 64.6108 11.6879 64.2386C11.6879 63.858 11.604 63.5185 11.4364 63.2202C11.2717 62.919 11.0444 62.6818 10.7546 62.5085C10.4648 62.3352 10.1339 62.2472 9.76172 62.2443C9.49467 62.2415 9.22053 62.2827 8.93928 62.3679C8.65803 62.4503 8.42649 62.5568 8.24467 62.6875L7.25604 62.5682L7.78445 58.2727H12.3185V59.2102H8.67081L8.36399 61.7841H8.41513C8.59411 61.642 8.81854 61.5241 9.08842 61.4304C9.35831 61.3366 9.63956 61.2898 9.93217 61.2898C10.4663 61.2898 10.9421 61.4176 11.3597 61.6733C11.7802 61.9261 12.1097 62.2727 12.3484 62.7131C12.5898 63.1534 12.7106 63.6562 12.7106 64.2216C12.7106 64.7784 12.5856 65.2756 12.3356 65.7131C12.0884 66.1477 11.7475 66.4915 11.3129 66.7443C10.8782 66.9943 10.3839 67.1193 9.8299 67.1193ZM17.25 67.1193C16.608 67.1193 16.0611 66.9446 15.6094 66.5952C15.1577 66.2429 14.8125 65.733 14.5739 65.0653C14.3352 64.3949 14.2159 63.5852 14.2159 62.6364C14.2159 61.6932 14.3352 60.8878 14.5739 60.2202C14.8153 59.5497 15.1619 59.0384 15.6136 58.6861C16.0682 58.331 16.6136 58.1534 17.25 58.1534C17.8864 58.1534 18.4304 58.331 18.8821 58.6861C19.3366 59.0384 19.6832 59.5497 19.9219 60.2202C20.1634 60.8878 20.2841 61.6932 20.2841 62.6364C20.2841 63.5852 20.1648 64.3949 19.9261 65.0653C19.6875 65.733 19.3423 66.2429 18.8906 66.5952C18.4389 66.9446 17.892 67.1193 17.25 67.1193ZM17.25 66.1818C17.8864 66.1818 18.3807 65.875 18.733 65.2614C19.0852 64.6477 19.2614 63.7727 19.2614 62.6364C19.2614 61.8807 19.1804 61.2372 19.0185 60.706C18.8594 60.1747 18.6293 59.7699 18.3281 59.4915C18.0298 59.2131 17.6705 59.0739 17.25 59.0739C16.6193 59.0739 16.1264 59.3849 15.7713 60.0071C15.4162 60.6264 15.2386 61.5028 15.2386 62.6364C15.2386 63.392 15.3182 64.0341 15.4773 64.5625C15.6364 65.0909 15.8651 65.4929 16.1634 65.7685C16.4645 66.044 16.8267 66.1818 17.25 66.1818ZM24.75 67.1193C24.108 67.1193 23.5611 66.9446 23.1094 66.5952C22.6577 66.2429 22.3125 65.733 22.0739 65.0653C21.8352 64.3949 21.7159 63.5852 21.7159 62.6364C21.7159 61.6932 21.8352 60.8878 22.0739 60.2202C22.3153 59.5497 22.6619 59.0384 23.1136 58.6861C23.5682 58.331 24.1136 58.1534 24.75 58.1534C25.3864 58.1534 25.9304 58.331 26.3821 58.6861C26.8366 59.0384 27.1832 59.5497 27.4219 60.2202C27.6634 60.8878 27.7841 61.6932 27.7841 62.6364C27.7841 63.5852 27.6648 64.3949 27.4261 65.0653C27.1875 65.733 26.8423 66.2429 26.3906 66.5952C25.9389 66.9446 25.392 67.1193 24.75 67.1193ZM24.75 66.1818C25.3864 66.1818 25.8807 65.875 26.233 65.2614C26.5852 64.6477 26.7614 63.7727 26.7614 62.6364C26.7614 61.8807 26.6804 61.2372 26.5185 60.706C26.3594 60.1747 26.1293 59.7699 25.8281 59.4915C25.5298 59.2131 25.1705 59.0739 24.75 59.0739C24.1193 59.0739 23.6264 59.3849 23.2713 60.0071C22.9162 60.6264 22.7386 61.5028 22.7386 62.6364C22.7386 63.392 22.8182 64.0341 22.9773 64.5625C23.1364 65.0909 23.3651 65.4929 23.6634 65.7685C23.9645 66.044 24.3267 66.1818 24.75 66.1818ZM34.044 59.704H34.908V66.124H34.044V59.704ZM31.44 61.492V62.356H37.56V61.492H31.44ZM31.44 60.004V60.868H37.56V60.004H31.44ZM30.576 59.356H38.46V63.004H30.576V59.356ZM29.82 63.736H38.652V64.504H30.672V67.96H29.82V63.736ZM38.412 63.736H39.276V67.036C39.276 67.468 39.204 67.684 38.904 67.816C38.592 67.936 38.088 67.948 37.308 67.948C37.272 67.72 37.164 67.42 37.056 67.204C37.608 67.216 38.076 67.216 38.208 67.204C38.364 67.204 38.412 67.168 38.412 67.024V63.736ZM31.428 65.908C32.808 65.86 34.932 65.776 37.008 65.668L36.996 66.4C34.992 66.52 32.916 66.628 31.488 66.7L31.428 65.908ZM35.868 64.924L36.552 64.708C37.08 65.356 37.62 66.256 37.8 66.868L37.092 67.108C36.912 66.508 36.396 65.596 35.868 64.924ZM31.908 56.92H32.784V59.188H31.908V56.92ZM36.132 56.92H37.008V59.188H36.132V56.92ZM29.316 57.652H39.684V58.432H29.316V57.652Z" fill="#334155"/>
<path d="M56.5 63H529.5" stroke="#DEE2E6"/>
<path d="M5.39347 100.273V109H4.33665V101.381H4.28551L2.15483 102.795V101.722L4.33665 100.273H5.39347ZM10.75 109.119C10.108 109.119 9.56108 108.945 9.10938 108.595C8.65767 108.243 8.3125 107.733 8.07386 107.065C7.83523 106.395 7.71591 105.585 7.71591 104.636C7.71591 103.693 7.83523 102.888 8.07386 102.22C8.31534 101.55 8.66193 101.038 9.11364 100.686C9.56818 100.331 10.1136 100.153 10.75 100.153C11.3864 100.153 11.9304 100.331 12.3821 100.686C12.8366 101.038 13.1832 101.55 13.4219 102.22C13.6634 102.888 13.7841 103.693 13.7841 104.636C13.7841 105.585 13.6648 106.395 13.4261 107.065C13.1875 107.733 12.8423 108.243 12.3906 108.595C11.9389 108.945 11.392 109.119 10.75 109.119ZM10.75 108.182C11.3864 108.182 11.8807 107.875 12.233 107.261C12.5852 106.648 12.7614 105.773 12.7614 104.636C12.7614 103.881 12.6804 103.237 12.5185 102.706C12.3594 102.175 12.1293 101.77 11.8281 101.491C11.5298 101.213 11.1705 101.074 10.75 101.074C10.1193 101.074 9.62642 101.385 9.27131 102.007C8.91619 102.626 8.73864 103.503 8.73864 104.636C8.73864 105.392 8.81818 106.034 8.97727 106.562C9.13636 107.091 9.36506 107.493 9.66335 107.768C9.96449 108.044 10.3267 108.182 10.75 108.182ZM18.25 109.119C17.608 109.119 17.0611 108.945 16.6094 108.595C16.1577 108.243 15.8125 107.733 15.5739 107.065C15.3352 106.395 15.2159 105.585 15.2159 104.636C15.2159 103.693 15.3352 102.888 15.5739 102.22C15.8153 101.55 16.1619 101.038 16.6136 100.686C17.0682 100.331 17.6136 100.153 18.25 100.153C18.8864 100.153 19.4304 100.331 19.8821 100.686C20.3366 101.038 20.6832 101.55 20.9219 102.22C21.1634 102.888 21.2841 103.693 21.2841 104.636C21.2841 105.585 21.1648 106.395 20.9261 107.065C20.6875 107.733 20.3423 108.243 19.8906 108.595C19.4389 108.945 18.892 109.119 18.25 109.119ZM18.25 108.182C18.8864 108.182 19.3807 107.875 19.733 107.261C20.0852 106.648 20.2614 105.773 20.2614 104.636C20.2614 103.881 20.1804 103.237 20.0185 102.706C19.8594 102.175 19.6293 101.77 19.3281 101.491C19.0298 101.213 18.6705 101.074 18.25 101.074C17.6193 101.074 17.1264 101.385 16.7713 102.007C16.4162 102.626 16.2386 103.503 16.2386 104.636C16.2386 105.392 16.3182 106.034 16.4773 106.562C16.6364 107.091 16.8651 107.493 17.1634 107.768C17.4645 108.044 17.8267 108.182 18.25 108.182ZM25.75 109.119C25.108 109.119 24.5611 108.945 24.1094 108.595C23.6577 108.243 23.3125 107.733 23.0739 107.065C22.8352 106.395 22.7159 105.585 22.7159 104.636C22.7159 103.693 22.8352 102.888 23.0739 102.22C23.3153 101.55 23.6619 101.038 24.1136 100.686C24.5682 100.331 25.1136 100.153 25.75 100.153C26.3864 100.153 26.9304 100.331 27.3821 100.686C27.8366 101.038 28.1832 101.55 28.4219 102.22C28.6634 102.888 28.7841 103.693 28.7841 104.636C28.7841 105.585 28.6648 106.395 28.4261 107.065C28.1875 107.733 27.8423 108.243 27.3906 108.595C26.9389 108.945 26.392 109.119 25.75 109.119ZM25.75 108.182C26.3864 108.182 26.8807 107.875 27.233 107.261C27.5852 106.648 27.7614 105.773 27.7614 104.636C27.7614 103.881 27.6804 103.237 27.5185 102.706C27.3594 102.175 27.1293 101.77 26.8281 101.491C26.5298 101.213 26.1705 101.074 25.75 101.074C25.1193 101.074 24.6264 101.385 24.2713 102.007C23.9162 102.626 23.7386 103.503 23.7386 104.636C23.7386 105.392 23.8182 106.034 23.9773 106.562C24.1364 107.091 24.3651 107.493 24.6634 107.768C24.9645 108.044 25.3267 108.182 25.75 108.182ZM35.044 101.704H35.908V108.124H35.044V101.704ZM32.44 103.492V104.356H38.56V103.492H32.44ZM32.44 102.004V102.868H38.56V102.004H32.44ZM31.576 101.356H39.46V105.004H31.576V101.356ZM30.82 105.736H39.652V106.504H31.672V109.96H30.82V105.736ZM39.412 105.736H40.276V109.036C40.276 109.468 40.204 109.684 39.904 109.816C39.592 109.936 39.088 109.948 38.308 109.948C38.272 109.72 38.164 109.42 38.056 109.204C38.608 109.216 39.076 109.216 39.208 109.204C39.364 109.204 39.412 109.168 39.412 109.024V105.736ZM32.428 107.908C33.808 107.86 35.932 107.776 38.008 107.668L37.996 108.4C35.992 108.52 33.916 108.628 32.488 108.7L32.428 107.908ZM36.868 106.924L37.552 106.708C38.08 107.356 38.62 108.256 38.8 108.868L38.092 109.108C37.912 108.508 37.396 107.596 36.868 106.924ZM32.908 98.92H33.784V101.188H32.908V98.92ZM37.132 98.92H38.008V101.188H37.132V98.92ZM30.316 99.652H40.684V100.432H30.316V99.652Z" fill="#334155"/>
<path d="M57.5 105H529.5" stroke="#DEE2E6"/>
<path d="M11.8299 151.119C11.3299 151.119 10.8796 151.02 10.479 150.821C10.0785 150.622 9.75746 150.349 9.51598 150.003C9.2745 149.656 9.1424 149.261 9.11967 148.818H10.1424C10.1822 149.213 10.3612 149.54 10.6793 149.798C11.0004 150.054 11.3839 150.182 11.8299 150.182C12.1879 150.182 12.506 150.098 12.7844 149.93C13.0657 149.763 13.2859 149.533 13.445 149.24C13.6069 148.945 13.6879 148.611 13.6879 148.239C13.6879 147.858 13.604 147.518 13.4364 147.22C13.2717 146.919 13.0444 146.682 12.7546 146.509C12.4648 146.335 12.1339 146.247 11.7617 146.244C11.4947 146.241 11.2205 146.283 10.9393 146.368C10.658 146.45 10.4265 146.557 10.2447 146.688L9.25604 146.568L9.78445 142.273H14.3185V143.21H10.6708L10.364 145.784H10.4151C10.5941 145.642 10.8185 145.524 11.0884 145.43C11.3583 145.337 11.6396 145.29 11.9322 145.29C12.4663 145.29 12.9421 145.418 13.3597 145.673C13.7802 145.926 14.1097 146.273 14.3484 146.713C14.5898 147.153 14.7106 147.656 14.7106 148.222C14.7106 148.778 14.5856 149.276 14.3356 149.713C14.0884 150.148 13.7475 150.491 13.3129 150.744C12.8782 150.994 12.3839 151.119 11.8299 151.119ZM19.25 151.119C18.608 151.119 18.0611 150.945 17.6094 150.595C17.1577 150.243 16.8125 149.733 16.5739 149.065C16.3352 148.395 16.2159 147.585 16.2159 146.636C16.2159 145.693 16.3352 144.888 16.5739 144.22C16.8153 143.55 17.1619 143.038 17.6136 142.686C18.0682 142.331 18.6136 142.153 19.25 142.153C19.8864 142.153 20.4304 142.331 20.8821 142.686C21.3366 143.038 21.6832 143.55 21.9219 144.22C22.1634 144.888 22.2841 145.693 22.2841 146.636C22.2841 147.585 22.1648 148.395 21.9261 149.065C21.6875 149.733 21.3423 150.243 20.8906 150.595C20.4389 150.945 19.892 151.119 19.25 151.119ZM19.25 150.182C19.8864 150.182 20.3807 149.875 20.733 149.261C21.0852 148.648 21.2614 147.773 21.2614 146.636C21.2614 145.881 21.1804 145.237 21.0185 144.706C20.8594 144.175 20.6293 143.77 20.3281 143.491C20.0298 143.213 19.6705 143.074 19.25 143.074C18.6193 143.074 18.1264 143.385 17.7713 144.007C17.4162 144.626 17.2386 145.503 17.2386 146.636C17.2386 147.392 17.3182 148.034 17.4773 148.562C17.6364 149.091 17.8651 149.493 18.1634 149.768C18.4645 150.044 18.8267 150.182 19.25 150.182ZM26.75 151.119C26.108 151.119 25.5611 150.945 25.1094 150.595C24.6577 150.243 24.3125 149.733 24.0739 149.065C23.8352 148.395 23.7159 147.585 23.7159 146.636C23.7159 145.693 23.8352 144.888 24.0739 144.22C24.3153 143.55 24.6619 143.038 25.1136 142.686C25.5682 142.331 26.1136 142.153 26.75 142.153C27.3864 142.153 27.9304 142.331 28.3821 142.686C28.8366 143.038 29.1832 143.55 29.4219 144.22C29.6634 144.888 29.7841 145.693 29.7841 146.636C29.7841 147.585 29.6648 148.395 29.4261 149.065C29.1875 149.733 28.8423 150.243 28.3906 150.595C27.9389 150.945 27.392 151.119 26.75 151.119ZM26.75 150.182C27.3864 150.182 27.8807 149.875 28.233 149.261C28.5852 148.648 28.7614 147.773 28.7614 146.636C28.7614 145.881 28.6804 145.237 28.5185 144.706C28.3594 144.175 28.1293 143.77 27.8281 143.491C27.5298 143.213 27.1705 143.074 26.75 143.074C26.1193 143.074 25.6264 143.385 25.2713 144.007C24.9162 144.626 24.7386 145.503 24.7386 146.636C24.7386 147.392 24.8182 148.034 24.9773 148.562C25.1364 149.091 25.3651 149.493 25.6634 149.768C25.9645 150.044 26.3267 150.182 26.75 150.182ZM36.044 143.704H36.908V150.124H36.044V143.704ZM33.44 145.492V146.356H39.56V145.492H33.44ZM33.44 144.004V144.868H39.56V144.004H33.44ZM32.576 143.356H40.46V147.004H32.576V143.356ZM31.82 147.736H40.652V148.504H32.672V151.96H31.82V147.736ZM40.412 147.736H41.276V151.036C41.276 151.468 41.204 151.684 40.904 151.816C40.592 151.936 40.088 151.948 39.308 151.948C39.272 151.72 39.164 151.42 39.056 151.204C39.608 151.216 40.076 151.216 40.208 151.204C40.364 151.204 40.412 151.168 40.412 151.024V147.736ZM33.428 149.908C34.808 149.86 36.932 149.776 39.008 149.668L38.996 150.4C36.992 150.52 34.916 150.628 33.488 150.7L33.428 149.908ZM37.868 148.924L38.552 148.708C39.08 149.356 39.62 150.256 39.8 150.868L39.092 151.108C38.912 150.508 38.396 149.596 37.868 148.924ZM33.908 140.92H34.784V143.188H33.908V140.92ZM38.132 140.92H39.008V143.188H38.132V140.92ZM31.316 141.652H41.684V142.432H31.316V141.652Z" fill="#334155"/>
<path d="M58.5 147H529.5" stroke="#DEE2E6"/>
<path d="M38.75 189.119C38.108 189.119 37.5611 188.945 37.1094 188.595C36.6577 188.243 36.3125 187.733 36.0739 187.065C35.8352 186.395 35.7159 185.585 35.7159 184.636C35.7159 183.693 35.8352 182.888 36.0739 182.22C36.3153 181.55 36.6619 181.038 37.1136 180.686C37.5682 180.331 38.1136 180.153 38.75 180.153C39.3864 180.153 39.9304 180.331 40.3821 180.686C40.8366 181.038 41.1832 181.55 41.4219 182.22C41.6634 182.888 41.7841 183.693 41.7841 184.636C41.7841 185.585 41.6648 186.395 41.4261 187.065C41.1875 187.733 40.8423 188.243 40.3906 188.595C39.9389 188.945 39.392 189.119 38.75 189.119ZM38.75 188.182C39.3864 188.182 39.8807 187.875 40.233 187.261C40.5852 186.648 40.7614 185.773 40.7614 184.636C40.7614 183.881 40.6804 183.237 40.5185 182.706C40.3594 182.175 40.1293 181.77 39.8281 181.491C39.5298 181.213 39.1705 181.074 38.75 181.074C38.1193 181.074 37.6264 181.385 37.2713 182.007C36.9162 182.626 36.7386 183.503 36.7386 184.636C36.7386 185.392 36.8182 186.034 36.9773 186.562C37.1364 187.091 37.3651 187.493 37.6634 187.768C37.9645 188.044 38.3267 188.182 38.75 188.182Z" fill="#334155"/>
<path d="M58.5 194H529.5" stroke="#DEE2E6"/>
<rect width="12" height="128" transform="translate(62.5713 66)" fill="#8082FF"/>
<rect width="12" height="82" transform="translate(76.5713 112)" fill="#F4A76F"/>
<rect width="12" height="49" transform="matrix(1 0 0 -1 90.5713 194)" fill="#57D2A9"/>
<path d="M72.0429 208.273V217H70.9861V209.381H70.9349L68.8042 210.795V209.722L70.9861 208.273H72.0429ZM77.3312 208.153C77.6892 208.156 78.0471 208.224 78.4051 208.358C78.7631 208.491 79.0898 208.713 79.3852 209.023C79.6807 209.33 79.9179 209.749 80.0969 210.28C80.2758 210.811 80.3653 211.477 80.3653 212.278C80.3653 213.054 80.2915 213.743 80.1437 214.345C79.9988 214.945 79.7886 215.45 79.5131 215.862C79.2403 216.274 78.9079 216.587 78.5159 216.8C78.1267 217.013 77.6863 217.119 77.1949 217.119C76.7062 217.119 76.2702 217.023 75.8866 216.83C75.5059 216.634 75.1934 216.362 74.9491 216.016C74.7077 215.666 74.5528 215.261 74.4846 214.801H75.5244C75.6182 215.202 75.8042 215.533 76.0827 215.794C76.3639 216.053 76.7346 216.182 77.1949 216.182C77.8682 216.182 78.3994 215.888 78.7886 215.3C79.1807 214.712 79.3767 213.881 79.3767 212.807H79.3085C79.1494 213.045 78.9605 213.251 78.7417 213.425C78.523 213.598 78.2801 213.732 78.0131 213.825C77.746 213.919 77.4619 213.966 77.1608 213.966C76.6608 213.966 76.202 213.842 75.7844 213.595C75.3696 213.345 75.0372 213.003 74.7872 212.568C74.54 212.131 74.4165 211.631 74.4165 211.068C74.4165 210.534 74.5358 210.045 74.7744 209.602C75.0159 209.156 75.354 208.801 75.7886 208.537C76.2261 208.273 76.7403 208.145 77.3312 208.153ZM77.3312 209.091C76.9733 209.091 76.6508 209.18 76.3639 209.359C76.0798 209.536 75.854 209.774 75.6863 210.075C75.5216 210.374 75.4392 210.705 75.4392 211.068C75.4392 211.432 75.5187 211.763 75.6778 212.061C75.8398 212.357 76.0599 212.592 76.3383 212.768C76.6196 212.942 76.9392 213.028 77.2971 213.028C77.567 213.028 77.8184 212.976 78.0514 212.871C78.2844 212.763 78.4875 212.616 78.6608 212.432C78.8369 212.244 78.9747 212.033 79.0741 211.797C79.1736 211.558 79.2233 211.31 79.2233 211.051C79.2233 210.71 79.1409 210.391 78.9761 210.092C78.8142 209.794 78.5898 209.553 78.3028 209.368C78.0187 209.183 77.6949 209.091 77.3312 209.091ZM84.8195 208.153C85.1775 208.156 85.5354 208.224 85.8934 208.358C86.2513 208.491 86.578 208.713 86.8735 209.023C87.1689 209.33 87.4062 209.749 87.5851 210.28C87.7641 210.811 87.8536 211.477 87.8536 212.278C87.8536 213.054 87.7797 213.743 87.632 214.345C87.4871 214.945 87.2769 215.45 87.0013 215.862C86.7286 216.274 86.3962 216.587 86.0042 216.8C85.615 217.013 85.1746 217.119 84.6832 217.119C84.1945 217.119 83.7584 217.023 83.3749 216.83C82.9942 216.634 82.6817 216.362 82.4374 216.016C82.1959 215.666 82.0411 215.261 81.9729 214.801H83.0127C83.1064 215.202 83.2925 215.533 83.5709 215.794C83.8522 216.053 84.2229 216.182 84.6832 216.182C85.3564 216.182 85.8877 215.888 86.2769 215.3C86.6689 214.712 86.865 213.881 86.865 212.807H86.7968C86.6377 213.045 86.4488 213.251 86.23 213.425C86.0113 213.598 85.7684 213.732 85.5013 213.825C85.2343 213.919 84.9502 213.966 84.6491 213.966C84.1491 213.966 83.6903 213.842 83.2726 213.595C82.8579 213.345 82.5255 213.003 82.2755 212.568C82.0283 212.131 81.9047 211.631 81.9047 211.068C81.9047 210.534 82.0241 210.045 82.2627 209.602C82.5042 209.156 82.8422 208.801 83.2769 208.537C83.7144 208.273 84.2286 208.145 84.8195 208.153ZM84.8195 209.091C84.4616 209.091 84.1391 209.18 83.8522 209.359C83.5681 209.536 83.3422 209.774 83.1746 210.075C83.0099 210.374 82.9275 210.705 82.9275 211.068C82.9275 211.432 83.007 211.763 83.1661 212.061C83.328 212.357 83.5482 212.592 83.8266 212.768C84.1079 212.942 84.4275 213.028 84.7854 213.028C85.0553 213.028 85.3067 212.976 85.5397 212.871C85.7726 212.763 85.9758 212.616 86.1491 212.432C86.3252 212.244 86.463 212.033 86.5624 211.797C86.6618 211.558 86.7116 211.31 86.7116 211.051C86.7116 210.71 86.6292 210.391 86.4644 210.092C86.3025 209.794 86.078 209.553 85.7911 209.368C85.507 209.183 85.1832 209.091 84.8195 209.091ZM92.4271 217.119C92.0692 217.114 91.7112 217.045 91.3532 216.915C90.9953 216.784 90.6686 216.564 90.3731 216.254C90.0777 215.942 89.8405 215.52 89.6615 214.989C89.4825 214.455 89.393 213.784 89.393 212.977C89.393 212.205 89.4655 211.52 89.6104 210.923C89.7552 210.324 89.9655 209.82 90.241 209.411C90.5166 208.999 90.849 208.686 91.2382 208.473C91.6302 208.26 92.072 208.153 92.5635 208.153C93.0521 208.153 93.4868 208.251 93.8675 208.447C94.251 208.641 94.5635 208.911 94.805 209.257C95.0464 209.604 95.2027 210.003 95.2737 210.455H94.2339C94.1373 210.062 93.9498 209.737 93.6714 209.479C93.393 209.22 93.0237 209.091 92.5635 209.091C91.8873 209.091 91.3547 209.385 90.9655 209.973C90.5791 210.561 90.3845 211.386 90.3817 212.449H90.4498C90.6089 212.207 90.7979 212.001 91.0166 211.831C91.2382 211.658 91.4825 211.524 91.7496 211.43C92.0166 211.337 92.2993 211.29 92.5976 211.29C93.0976 211.29 93.555 211.415 93.9697 211.665C94.3845 211.912 94.7169 212.254 94.9669 212.692C95.2169 213.126 95.3419 213.625 95.3419 214.188C95.3419 214.727 95.2211 215.222 94.9797 215.67C94.7382 216.116 94.3987 216.472 93.9612 216.736C93.5265 216.997 93.0152 217.125 92.4271 217.119ZM92.4271 216.182C92.7851 216.182 93.1061 216.092 93.3902 215.913C93.6771 215.734 93.903 215.494 94.0677 215.193C94.2354 214.892 94.3192 214.557 94.3192 214.188C94.3192 213.827 94.2382 213.499 94.0763 213.203C93.9172 212.905 93.697 212.668 93.4157 212.491C93.1373 212.315 92.8192 212.227 92.4612 212.227C92.1913 212.227 91.9399 212.281 91.7069 212.389C91.474 212.494 91.2694 212.639 91.0933 212.824C90.92 213.009 90.7836 213.22 90.6842 213.459C90.5848 213.695 90.5351 213.943 90.5351 214.205C90.5351 214.551 90.616 214.875 90.778 215.176C90.9427 215.477 91.1672 215.72 91.4513 215.905C91.7382 216.089 92.0635 216.182 92.4271 216.182Z" fill="#334155"/>
<rect width="12" height="126" transform="translate(136.714 68)" fill="#8082FF"/>
<rect width="12" height="82" transform="translate(150.714 112)" fill="#F4A76F"/>
<rect width="12" height="49" transform="matrix(1 0 0 -1 164.714 194)" fill="#57D2A9"/>
<path d="M142.617 217V216.233L145.498 213.08C145.836 212.71 146.114 212.389 146.333 212.116C146.552 211.841 146.714 211.582 146.819 211.341C146.927 211.097 146.981 210.841 146.981 210.574C146.981 210.267 146.907 210.001 146.759 209.777C146.614 209.553 146.416 209.379 146.163 209.257C145.91 209.135 145.626 209.074 145.31 209.074C144.975 209.074 144.683 209.143 144.433 209.283C144.185 209.419 143.994 209.611 143.857 209.858C143.724 210.105 143.657 210.395 143.657 210.727H142.651C142.651 210.216 142.769 209.767 143.005 209.381C143.241 208.994 143.562 208.693 143.968 208.477C144.377 208.261 144.836 208.153 145.345 208.153C145.856 208.153 146.309 208.261 146.704 208.477C147.099 208.693 147.408 208.984 147.633 209.351C147.857 209.717 147.97 210.125 147.97 210.574C147.97 210.895 147.911 211.209 147.795 211.516C147.681 211.82 147.482 212.159 147.198 212.534C146.917 212.906 146.526 213.361 146.026 213.898L144.066 215.994V216.062H148.123V217H142.617ZM152.729 217.119C152.087 217.119 151.541 216.945 151.089 216.595C150.637 216.243 150.292 215.733 150.053 215.065C149.815 214.395 149.695 213.585 149.695 212.636C149.695 211.693 149.815 210.888 150.053 210.22C150.295 209.55 150.641 209.038 151.093 208.686C151.548 208.331 152.093 208.153 152.729 208.153C153.366 208.153 153.91 208.331 154.362 208.686C154.816 209.038 155.163 209.55 155.401 210.22C155.643 210.888 155.764 211.693 155.764 212.636C155.764 213.585 155.644 214.395 155.406 215.065C155.167 215.733 154.822 216.243 154.37 216.595C153.918 216.945 153.372 217.119 152.729 217.119ZM152.729 216.182C153.366 216.182 153.86 215.875 154.212 215.261C154.565 214.648 154.741 213.773 154.741 212.636C154.741 211.881 154.66 211.237 154.498 210.706C154.339 210.175 154.109 209.77 153.808 209.491C153.509 209.213 153.15 209.074 152.729 209.074C152.099 209.074 151.606 209.385 151.251 210.007C150.896 210.626 150.718 211.503 150.718 212.636C150.718 213.392 150.798 214.034 150.957 214.562C151.116 215.091 151.345 215.493 151.643 215.768C151.944 216.044 152.306 216.182 152.729 216.182ZM160.229 217.119C159.587 217.119 159.041 216.945 158.589 216.595C158.137 216.243 157.792 215.733 157.553 215.065C157.315 214.395 157.195 213.585 157.195 212.636C157.195 211.693 157.315 210.888 157.553 210.22C157.795 209.55 158.141 209.038 158.593 208.686C159.048 208.331 159.593 208.153 160.229 208.153C160.866 208.153 161.41 208.331 161.862 208.686C162.316 209.038 162.663 209.55 162.901 210.22C163.143 210.888 163.264 211.693 163.264 212.636C163.264 213.585 163.144 214.395 162.906 215.065C162.667 215.733 162.322 216.243 161.87 216.595C161.418 216.945 160.872 217.119 160.229 217.119ZM160.229 216.182C160.866 216.182 161.36 215.875 161.712 215.261C162.065 214.648 162.241 213.773 162.241 212.636C162.241 211.881 162.16 211.237 161.998 210.706C161.839 210.175 161.609 209.77 161.308 209.491C161.009 209.213 160.65 209.074 160.229 209.074C159.599 209.074 159.106 209.385 158.751 210.007C158.396 210.626 158.218 211.503 158.218 212.636C158.218 213.392 158.298 214.034 158.457 214.562C158.616 215.091 158.845 215.493 159.143 215.768C159.444 216.044 159.806 216.182 160.229 216.182ZM167.729 217.119C167.087 217.119 166.541 216.945 166.089 216.595C165.637 216.243 165.292 215.733 165.053 215.065C164.815 214.395 164.695 213.585 164.695 212.636C164.695 211.693 164.815 210.888 165.053 210.22C165.295 209.55 165.641 209.038 166.093 208.686C166.548 208.331 167.093 208.153 167.729 208.153C168.366 208.153 168.91 208.331 169.362 208.686C169.816 209.038 170.163 209.55 170.401 210.22C170.643 210.888 170.764 211.693 170.764 212.636C170.764 213.585 170.644 214.395 170.406 215.065C170.167 215.733 169.822 216.243 169.37 216.595C168.918 216.945 168.372 217.119 167.729 217.119ZM167.729 216.182C168.366 216.182 168.86 215.875 169.212 215.261C169.565 214.648 169.741 213.773 169.741 212.636C169.741 211.881 169.66 211.237 169.498 210.706C169.339 210.175 169.109 209.77 168.808 209.491C168.509 209.213 168.15 209.074 167.729 209.074C167.099 209.074 166.606 209.385 166.251 210.007C165.896 210.626 165.718 211.503 165.718 212.636C165.718 213.392 165.798 214.034 165.957 214.562C166.116 215.091 166.345 215.493 166.643 215.768C166.944 216.044 167.306 216.182 167.729 216.182Z" fill="#334155"/>
<rect width="12" height="126" transform="translate(204.857 68)" fill="#8082FF"/>
<rect width="12" height="82" transform="translate(218.857 112)" fill="#F4A76F"/>
<rect width="12" height="49" transform="matrix(1 0 0 -1 232.857 194)" fill="#57D2A9"/>
<path d="M210.761 217V216.233L213.642 213.08C213.98 212.71 214.258 212.389 214.477 212.116C214.695 211.841 214.857 211.582 214.963 211.341C215.07 211.097 215.124 210.841 215.124 210.574C215.124 210.267 215.051 210.001 214.903 209.777C214.758 209.553 214.559 209.379 214.306 209.257C214.053 209.135 213.769 209.074 213.454 209.074C213.119 209.074 212.826 209.143 212.576 209.283C212.329 209.419 212.137 209.611 212.001 209.858C211.867 210.105 211.801 210.395 211.801 210.727H210.795C210.795 210.216 210.913 209.767 211.149 209.381C211.384 208.994 211.705 208.693 212.112 208.477C212.521 208.261 212.98 208.153 213.488 208.153C213.999 208.153 214.453 208.261 214.847 208.477C215.242 208.693 215.552 208.984 215.776 209.351C216.001 209.717 216.113 210.125 216.113 210.574C216.113 210.895 216.055 211.209 215.938 211.516C215.825 211.82 215.626 212.159 215.342 212.534C215.061 212.906 214.67 213.361 214.17 213.898L212.21 215.994V216.062H216.267V217H210.761ZM220.873 217.119C220.231 217.119 219.684 216.945 219.232 216.595C218.781 216.243 218.436 215.733 218.197 215.065C217.958 214.395 217.839 213.585 217.839 212.636C217.839 211.693 217.958 210.888 218.197 210.22C218.438 209.55 218.785 209.038 219.237 208.686C219.691 208.331 220.237 208.153 220.873 208.153C221.509 208.153 222.053 208.331 222.505 208.686C222.96 209.038 223.306 209.55 223.545 210.22C223.786 210.888 223.907 211.693 223.907 212.636C223.907 213.585 223.788 214.395 223.549 215.065C223.311 215.733 222.965 216.243 222.514 216.595C222.062 216.945 221.515 217.119 220.873 217.119ZM220.873 216.182C221.509 216.182 222.004 215.875 222.356 215.261C222.708 214.648 222.884 213.773 222.884 212.636C222.884 211.881 222.803 211.237 222.642 210.706C222.482 210.175 222.252 209.77 221.951 209.491C221.653 209.213 221.294 209.074 220.873 209.074C220.242 209.074 219.749 209.385 219.394 210.007C219.039 210.626 218.862 211.503 218.862 212.636C218.862 213.392 218.941 214.034 219.1 214.562C219.259 215.091 219.488 215.493 219.786 215.768C220.088 216.044 220.45 216.182 220.873 216.182ZM228.373 217.119C227.731 217.119 227.184 216.945 226.732 216.595C226.281 216.243 225.936 215.733 225.697 215.065C225.458 214.395 225.339 213.585 225.339 212.636C225.339 211.693 225.458 210.888 225.697 210.22C225.938 209.55 226.285 209.038 226.737 208.686C227.191 208.331 227.737 208.153 228.373 208.153C229.009 208.153 229.553 208.331 230.005 208.686C230.46 209.038 230.806 209.55 231.045 210.22C231.286 210.888 231.407 211.693 231.407 212.636C231.407 213.585 231.288 214.395 231.049 215.065C230.811 215.733 230.465 216.243 230.014 216.595C229.562 216.945 229.015 217.119 228.373 217.119ZM228.373 216.182C229.009 216.182 229.504 215.875 229.856 215.261C230.208 214.648 230.384 213.773 230.384 212.636C230.384 211.881 230.303 211.237 230.142 210.706C229.982 210.175 229.752 209.77 229.451 209.491C229.153 209.213 228.794 209.074 228.373 209.074C227.742 209.074 227.249 209.385 226.894 210.007C226.539 210.626 226.362 211.503 226.362 212.636C226.362 213.392 226.441 214.034 226.6 214.562C226.759 215.091 226.988 215.493 227.286 215.768C227.588 216.044 227.95 216.182 228.373 216.182ZM232.822 215.21V214.341L236.657 208.273H237.288V209.619H236.862L233.964 214.205V214.273H239.129V215.21H232.822ZM236.93 217V214.946V214.541V208.273H237.936V217H236.93Z" fill="#334155"/>
<rect width="12" height="126" transform="translate(273 68)" fill="#8082FF"/>
<rect width="12" height="82" transform="translate(287 112)" fill="#F4A76F"/>
<rect width="12" height="49" transform="matrix(1 0 0 -1 301 194)" fill="#57D2A9"/>
<path d="M278.903 217V216.233L281.784 213.08C282.122 212.71 282.401 212.389 282.619 212.116C282.838 211.841 283 211.582 283.105 211.341C283.213 211.097 283.267 210.841 283.267 210.574C283.267 210.267 283.193 210.001 283.045 209.777C282.901 209.553 282.702 209.379 282.449 209.257C282.196 209.135 281.912 209.074 281.597 209.074C281.261 209.074 280.969 209.143 280.719 209.283C280.472 209.419 280.28 209.611 280.143 209.858C280.01 210.105 279.943 210.395 279.943 210.727H278.938C278.938 210.216 279.055 209.767 279.291 209.381C279.527 208.994 279.848 208.693 280.254 208.477C280.663 208.261 281.122 208.153 281.631 208.153C282.142 208.153 282.595 208.261 282.99 208.477C283.385 208.693 283.695 208.984 283.919 209.351C284.143 209.717 284.256 210.125 284.256 210.574C284.256 210.895 284.197 211.209 284.081 211.516C283.967 211.82 283.768 212.159 283.484 212.534C283.203 212.906 282.812 213.361 282.312 213.898L280.352 215.994V216.062H284.409V217H278.903ZM289.016 217.119C288.374 217.119 287.827 216.945 287.375 216.595C286.923 216.243 286.578 215.733 286.339 215.065C286.101 214.395 285.982 213.585 285.982 212.636C285.982 211.693 286.101 210.888 286.339 210.22C286.581 209.55 286.928 209.038 287.379 208.686C287.834 208.331 288.379 208.153 289.016 208.153C289.652 208.153 290.196 208.331 290.648 208.686C291.102 209.038 291.449 209.55 291.688 210.22C291.929 210.888 292.05 211.693 292.05 212.636C292.05 213.585 291.93 214.395 291.692 215.065C291.453 215.733 291.108 216.243 290.656 216.595C290.205 216.945 289.658 217.119 289.016 217.119ZM289.016 216.182C289.652 216.182 290.146 215.875 290.499 215.261C290.851 214.648 291.027 213.773 291.027 212.636C291.027 211.881 290.946 211.237 290.784 210.706C290.625 210.175 290.395 209.77 290.094 209.491C289.795 209.213 289.436 209.074 289.016 209.074C288.385 209.074 287.892 209.385 287.537 210.007C287.182 210.626 287.004 211.503 287.004 212.636C287.004 213.392 287.084 214.034 287.243 214.562C287.402 215.091 287.631 215.493 287.929 215.768C288.23 216.044 288.592 216.182 289.016 216.182ZM296.516 217.119C295.874 217.119 295.327 216.945 294.875 216.595C294.423 216.243 294.078 215.733 293.839 215.065C293.601 214.395 293.482 213.585 293.482 212.636C293.482 211.693 293.601 210.888 293.839 210.22C294.081 209.55 294.428 209.038 294.879 208.686C295.334 208.331 295.879 208.153 296.516 208.153C297.152 208.153 297.696 208.331 298.148 208.686C298.602 209.038 298.949 209.55 299.188 210.22C299.429 210.888 299.55 211.693 299.55 212.636C299.55 213.585 299.43 214.395 299.192 215.065C298.953 215.733 298.608 216.243 298.156 216.595C297.705 216.945 297.158 217.119 296.516 217.119ZM296.516 216.182C297.152 216.182 297.646 215.875 297.999 215.261C298.351 214.648 298.527 213.773 298.527 212.636C298.527 211.881 298.446 211.237 298.284 210.706C298.125 210.175 297.895 209.77 297.594 209.491C297.295 209.213 296.936 209.074 296.516 209.074C295.885 209.074 295.392 209.385 295.037 210.007C294.682 210.626 294.504 211.503 294.504 212.636C294.504 213.392 294.584 214.034 294.743 214.562C294.902 215.091 295.131 215.493 295.429 215.768C295.73 216.044 296.092 216.182 296.516 216.182ZM303.964 217.119C303.379 217.119 302.862 217.016 302.413 216.808C301.967 216.598 301.619 216.31 301.369 215.943C301.119 215.574 300.996 215.153 300.999 214.682C300.996 214.312 301.068 213.972 301.216 213.659C301.364 213.344 301.565 213.081 301.821 212.871C302.08 212.658 302.368 212.523 302.686 212.466V212.415C302.268 212.307 301.936 212.072 301.689 211.712C301.442 211.348 301.32 210.935 301.322 210.472C301.32 210.028 301.432 209.632 301.659 209.283C301.886 208.933 302.199 208.658 302.597 208.456C302.997 208.254 303.453 208.153 303.964 208.153C304.47 208.153 304.922 208.254 305.32 208.456C305.717 208.658 306.03 208.933 306.257 209.283C306.487 209.632 306.604 210.028 306.607 210.472C306.604 210.935 306.477 211.348 306.227 211.712C305.98 212.072 305.652 212.307 305.243 212.415V212.466C305.558 212.523 305.842 212.658 306.095 212.871C306.348 213.081 306.55 213.344 306.7 213.659C306.851 213.972 306.928 214.312 306.93 214.682C306.928 215.153 306.8 215.574 306.547 215.943C306.297 216.31 305.949 216.598 305.503 216.808C305.06 217.016 304.547 217.119 303.964 217.119ZM303.964 216.182C304.359 216.182 304.7 216.118 304.987 215.99C305.274 215.862 305.496 215.682 305.652 215.449C305.808 215.216 305.888 214.943 305.891 214.631C305.888 214.301 305.803 214.01 305.635 213.757C305.467 213.504 305.239 213.305 304.949 213.161C304.662 213.016 304.334 212.943 303.964 212.943C303.592 212.943 303.26 213.016 302.967 213.161C302.678 213.305 302.449 213.504 302.281 213.757C302.116 214.01 302.036 214.301 302.038 214.631C302.036 214.943 302.111 215.216 302.264 215.449C302.42 215.682 302.643 215.862 302.933 215.99C303.223 216.118 303.567 216.182 303.964 216.182ZM303.964 212.04C304.277 212.04 304.554 211.977 304.795 211.852C305.04 211.727 305.232 211.553 305.371 211.328C305.51 211.104 305.581 210.841 305.584 210.54C305.581 210.244 305.511 209.987 305.375 209.768C305.239 209.547 305.05 209.376 304.808 209.257C304.567 209.135 304.286 209.074 303.964 209.074C303.638 209.074 303.352 209.135 303.108 209.257C302.864 209.376 302.675 209.547 302.541 209.768C302.408 209.987 302.342 210.244 302.345 210.54C302.342 210.841 302.409 211.104 302.545 211.328C302.685 211.553 302.876 211.727 303.121 211.852C303.365 211.977 303.646 212.04 303.964 212.04Z" fill="#334155"/>
<rect width="12" height="126" transform="translate(341.143 68)" fill="#8082FF"/>
<rect width="12" height="82" transform="translate(355.143 112)" fill="#F4A76F"/>
<rect width="12" height="49" transform="matrix(1 0 0 -1 369.143 194)" fill="#57D2A9"/>
<path d="M348.046 217V216.233L350.927 213.08C351.265 212.71 351.543 212.389 351.762 212.116C351.981 211.841 352.143 211.582 352.248 211.341C352.356 211.097 352.41 210.841 352.41 210.574C352.41 210.267 352.336 210.001 352.188 209.777C352.043 209.553 351.844 209.379 351.591 209.257C351.339 209.135 351.055 209.074 350.739 209.074C350.404 209.074 350.111 209.143 349.861 209.283C349.614 209.419 349.422 209.611 349.286 209.858C349.153 210.105 349.086 210.395 349.086 210.727H348.08C348.08 210.216 348.198 209.767 348.434 209.381C348.67 208.994 348.991 208.693 349.397 208.477C349.806 208.261 350.265 208.153 350.773 208.153C351.285 208.153 351.738 208.261 352.133 208.477C352.528 208.693 352.837 208.984 353.062 209.351C353.286 209.717 353.398 210.125 353.398 210.574C353.398 210.895 353.34 211.209 353.224 211.516C353.11 211.82 352.911 212.159 352.627 212.534C352.346 212.906 351.955 213.361 351.455 213.898L349.495 215.994V216.062H353.552V217H348.046ZM358.158 217.119C357.516 217.119 356.969 216.945 356.518 216.595C356.066 216.243 355.721 215.733 355.482 215.065C355.243 214.395 355.124 213.585 355.124 212.636C355.124 211.693 355.243 210.888 355.482 210.22C355.724 209.55 356.07 209.038 356.522 208.686C356.976 208.331 357.522 208.153 358.158 208.153C358.795 208.153 359.339 208.331 359.79 208.686C360.245 209.038 360.591 209.55 360.83 210.22C361.072 210.888 361.192 211.693 361.192 212.636C361.192 213.585 361.073 214.395 360.834 215.065C360.596 215.733 360.251 216.243 359.799 216.595C359.347 216.945 358.8 217.119 358.158 217.119ZM358.158 216.182C358.795 216.182 359.289 215.875 359.641 215.261C359.993 214.648 360.17 213.773 360.17 212.636C360.17 211.881 360.089 211.237 359.927 210.706C359.768 210.175 359.537 209.77 359.236 209.491C358.938 209.213 358.579 209.074 358.158 209.074C357.528 209.074 357.035 209.385 356.68 210.007C356.324 210.626 356.147 211.503 356.147 212.636C356.147 213.392 356.226 214.034 356.385 214.562C356.545 215.091 356.773 215.493 357.072 215.768C357.373 216.044 357.735 216.182 358.158 216.182ZM365.88 208.273V217H364.823V209.381H364.772L362.641 210.795V209.722L364.823 208.273H365.88ZM368.39 217V216.233L371.27 213.08C371.608 212.71 371.887 212.389 372.106 212.116C372.324 211.841 372.486 211.582 372.591 211.341C372.699 211.097 372.753 210.841 372.753 210.574C372.753 210.267 372.68 210.001 372.532 209.777C372.387 209.553 372.188 209.379 371.935 209.257C371.682 209.135 371.398 209.074 371.083 209.074C370.748 209.074 370.455 209.143 370.205 209.283C369.958 209.419 369.766 209.611 369.63 209.858C369.496 210.105 369.43 210.395 369.43 210.727H368.424C368.424 210.216 368.542 209.767 368.778 209.381C369.013 208.994 369.334 208.693 369.741 208.477C370.15 208.261 370.608 208.153 371.117 208.153C371.628 208.153 372.081 208.261 372.476 208.477C372.871 208.693 373.181 208.984 373.405 209.351C373.63 209.717 373.742 210.125 373.742 210.574C373.742 210.895 373.684 211.209 373.567 211.516C373.454 211.82 373.255 212.159 372.971 212.534C372.689 212.906 372.299 213.361 371.799 213.898L369.839 215.994V216.062H373.895V217H368.39Z" fill="#334155"/>
<rect width="12" height="126" transform="translate(409.285 68)" fill="#8082FF"/>
<rect width="12" height="82" transform="translate(423.285 112)" fill="#F4A76F"/>
<rect width="12" height="49" transform="matrix(1 0 0 -1 437.285 194)" fill="#57D2A9"/>
<path d="M416.189 217V216.233L419.069 213.08C419.407 212.71 419.686 212.389 419.904 212.116C420.123 211.841 420.285 211.582 420.39 211.341C420.498 211.097 420.552 210.841 420.552 210.574C420.552 210.267 420.478 210.001 420.331 209.777C420.186 209.553 419.987 209.379 419.734 209.257C419.481 209.135 419.197 209.074 418.882 209.074C418.547 209.074 418.254 209.143 418.004 209.283C417.757 209.419 417.565 209.611 417.429 209.858C417.295 210.105 417.228 210.395 417.228 210.727H416.223C416.223 210.216 416.341 209.767 416.576 209.381C416.812 208.994 417.133 208.693 417.539 208.477C417.949 208.261 418.407 208.153 418.916 208.153C419.427 208.153 419.88 208.261 420.275 208.477C420.67 208.693 420.98 208.984 421.204 209.351C421.429 209.717 421.541 210.125 421.541 210.574C421.541 210.895 421.483 211.209 421.366 211.516C421.252 211.82 421.054 212.159 420.77 212.534C420.488 212.906 420.098 213.361 419.598 213.898L417.637 215.994V216.062H421.694V217H416.189ZM426.301 217.119C425.659 217.119 425.112 216.945 424.66 216.595C424.208 216.243 423.863 215.733 423.625 215.065C423.386 214.395 423.267 213.585 423.267 212.636C423.267 211.693 423.386 210.888 423.625 210.22C423.866 209.55 424.213 209.038 424.664 208.686C425.119 208.331 425.664 208.153 426.301 208.153C426.937 208.153 427.481 208.331 427.933 208.686C428.387 209.038 428.734 209.55 428.973 210.22C429.214 210.888 429.335 211.693 429.335 212.636C429.335 213.585 429.216 214.395 428.977 215.065C428.738 215.733 428.393 216.243 427.941 216.595C427.49 216.945 426.943 217.119 426.301 217.119ZM426.301 216.182C426.937 216.182 427.431 215.875 427.784 215.261C428.136 214.648 428.312 213.773 428.312 212.636C428.312 211.881 428.231 211.237 428.069 210.706C427.91 210.175 427.68 209.77 427.379 209.491C427.081 209.213 426.721 209.074 426.301 209.074C425.67 209.074 425.177 209.385 424.822 210.007C424.467 210.626 424.289 211.503 424.289 212.636C424.289 213.392 424.369 214.034 424.528 214.562C424.687 215.091 424.916 215.493 425.214 215.768C425.515 216.044 425.877 216.182 426.301 216.182ZM434.022 208.273V217H432.966V209.381H432.914L430.784 210.795V209.722L432.966 208.273H434.022ZM439.43 217.119C439.072 217.114 438.714 217.045 438.356 216.915C437.998 216.784 437.672 216.564 437.376 216.254C437.081 215.942 436.843 215.52 436.664 214.989C436.485 214.455 436.396 213.784 436.396 212.977C436.396 212.205 436.468 211.52 436.613 210.923C436.758 210.324 436.968 209.82 437.244 209.411C437.52 208.999 437.852 208.686 438.241 208.473C438.633 208.26 439.075 208.153 439.566 208.153C440.055 208.153 440.49 208.251 440.87 208.447C441.254 208.641 441.566 208.911 441.808 209.257C442.049 209.604 442.206 210.003 442.277 210.455H441.237C441.14 210.062 440.953 209.737 440.674 209.479C440.396 209.22 440.027 209.091 439.566 209.091C438.89 209.091 438.358 209.385 437.968 209.973C437.582 210.561 437.387 211.386 437.385 212.449H437.453C437.612 212.207 437.801 212.001 438.02 211.831C438.241 211.658 438.485 211.524 438.752 211.43C439.02 211.337 439.302 211.29 439.6 211.29C440.1 211.29 440.558 211.415 440.973 211.665C441.387 211.912 441.72 212.254 441.97 212.692C442.22 213.126 442.345 213.625 442.345 214.188C442.345 214.727 442.224 215.222 441.983 215.67C441.741 216.116 441.402 216.472 440.964 216.736C440.529 216.997 440.018 217.125 439.43 217.119ZM439.43 216.182C439.788 216.182 440.109 216.092 440.393 215.913C440.68 215.734 440.906 215.494 441.071 215.193C441.238 214.892 441.322 214.557 441.322 214.188C441.322 213.827 441.241 213.499 441.079 213.203C440.92 212.905 440.7 212.668 440.419 212.491C440.14 212.315 439.822 212.227 439.464 212.227C439.194 212.227 438.943 212.281 438.71 212.389C438.477 212.494 438.272 212.639 438.096 212.824C437.923 213.009 437.787 213.22 437.687 213.459C437.588 213.695 437.538 213.943 437.538 214.205C437.538 214.551 437.619 214.875 437.781 215.176C437.946 215.477 438.17 215.72 438.454 215.905C438.741 216.089 439.066 216.182 439.43 216.182Z" fill="#334155"/>
<rect width="12" height="126" transform="translate(477.429 68)" fill="#8082FF"/>
<rect width="12" height="82" transform="translate(491.429 112)" fill="#F4A76F"/>
<rect width="12" height="49" transform="matrix(1 0 0 -1 505.429 194)" fill="#57D2A9"/>
<path d="M483.332 217V216.233L486.213 213.08C486.551 212.71 486.829 212.389 487.048 212.116C487.267 211.841 487.429 211.582 487.534 211.341C487.642 211.097 487.696 210.841 487.696 210.574C487.696 210.267 487.622 210.001 487.474 209.777C487.329 209.553 487.13 209.379 486.878 209.257C486.625 209.135 486.341 209.074 486.025 209.074C485.69 209.074 485.397 209.143 485.147 209.283C484.9 209.419 484.709 209.611 484.572 209.858C484.439 210.105 484.372 210.395 484.372 210.727H483.366C483.366 210.216 483.484 209.767 483.72 209.381C483.956 208.994 484.277 208.693 484.683 208.477C485.092 208.261 485.551 208.153 486.059 208.153C486.571 208.153 487.024 208.261 487.419 208.477C487.814 208.693 488.123 208.984 488.348 209.351C488.572 209.717 488.684 210.125 488.684 210.574C488.684 210.895 488.626 211.209 488.51 211.516C488.396 211.82 488.197 212.159 487.913 212.534C487.632 212.906 487.241 213.361 486.741 213.898L484.781 215.994V216.062H488.838V217H483.332ZM493.444 217.119C492.802 217.119 492.255 216.945 491.804 216.595C491.352 216.243 491.007 215.733 490.768 215.065C490.53 214.395 490.41 213.585 490.41 212.636C490.41 211.693 490.53 210.888 490.768 210.22C491.01 209.55 491.356 209.038 491.808 208.686C492.263 208.331 492.808 208.153 493.444 208.153C494.081 208.153 494.625 208.331 495.076 208.686C495.531 209.038 495.878 209.55 496.116 210.22C496.358 210.888 496.478 211.693 496.478 212.636C496.478 213.585 496.359 214.395 496.12 215.065C495.882 215.733 495.537 216.243 495.085 216.595C494.633 216.945 494.086 217.119 493.444 217.119ZM493.444 216.182C494.081 216.182 494.575 215.875 494.927 215.261C495.28 214.648 495.456 213.773 495.456 212.636C495.456 211.881 495.375 211.237 495.213 210.706C495.054 210.175 494.824 209.77 494.522 209.491C494.224 209.213 493.865 209.074 493.444 209.074C492.814 209.074 492.321 209.385 491.966 210.007C491.611 210.626 491.433 211.503 491.433 212.636C491.433 213.392 491.513 214.034 491.672 214.562C491.831 215.091 492.059 215.493 492.358 215.768C492.659 216.044 493.021 216.182 493.444 216.182ZM498.098 217V216.233L500.978 213.08C501.316 212.71 501.595 212.389 501.814 212.116C502.032 211.841 502.194 211.582 502.299 211.341C502.407 211.097 502.461 210.841 502.461 210.574C502.461 210.267 502.388 210.001 502.24 209.777C502.095 209.553 501.896 209.379 501.643 209.257C501.39 209.135 501.106 209.074 500.791 209.074C500.456 209.074 500.163 209.143 499.913 209.283C499.666 209.419 499.474 209.611 499.338 209.858C499.204 210.105 499.138 210.395 499.138 210.727H498.132C498.132 210.216 498.25 209.767 498.486 209.381C498.721 208.994 499.042 208.693 499.449 208.477C499.858 208.261 500.316 208.153 500.825 208.153C501.336 208.153 501.79 208.261 502.184 208.477C502.579 208.693 502.889 208.984 503.113 209.351C503.338 209.717 503.45 210.125 503.45 210.574C503.45 210.895 503.392 211.209 503.275 211.516C503.162 211.82 502.963 212.159 502.679 212.534C502.397 212.906 502.007 213.361 501.507 213.898L499.547 215.994V216.062H503.603V217H498.098ZM508.21 217.119C507.568 217.119 507.021 216.945 506.569 216.595C506.118 216.243 505.772 215.733 505.534 215.065C505.295 214.395 505.176 213.585 505.176 212.636C505.176 211.693 505.295 210.888 505.534 210.22C505.775 209.55 506.122 209.038 506.574 208.686C507.028 208.331 507.574 208.153 508.21 208.153C508.846 208.153 509.39 208.331 509.842 208.686C510.297 209.038 510.643 209.55 510.882 210.22C511.123 210.888 511.244 211.693 511.244 212.636C511.244 213.585 511.125 214.395 510.886 215.065C510.647 215.733 510.302 216.243 509.851 216.595C509.399 216.945 508.852 217.119 508.21 217.119ZM508.21 216.182C508.846 216.182 509.341 215.875 509.693 215.261C510.045 214.648 510.221 213.773 510.221 212.636C510.221 211.881 510.14 211.237 509.978 210.706C509.819 210.175 509.589 209.77 509.288 209.491C508.99 209.213 508.63 209.074 508.21 209.074C507.579 209.074 507.086 209.385 506.731 210.007C506.376 210.626 506.199 211.503 506.199 212.636C506.199 213.392 506.278 214.034 506.437 214.562C506.596 215.091 506.825 215.493 507.123 215.768C507.424 216.044 507.787 216.182 508.21 216.182Z" fill="#334155"/>
</svg>
