<svg width="16" height="16" viewBox="0 0 16 16" fill="none" xmlns="http://www.w3.org/2000/svg">
<path d="M3.74072 8.58594C4.46989 9.3151 5.35531 9.67969 6.39697 9.67969C7.43864 9.67969 8.32406 9.3151 9.05322 8.58594C9.78239 7.85677 10.147 6.97135 10.147 5.92969C10.147 4.88802 9.78239 4.0026 9.05322 3.27344C8.32406 2.54427 7.43864 2.17969 6.39697 2.17969C5.35531 2.17969 4.46989 2.54427 3.74072 3.27344C3.01156 4.0026 2.64697 4.88802 2.64697 5.92969C2.64697 6.97135 3.01156 7.85677 3.74072 8.58594ZM11.397 9.67969L15.5376 13.8203L14.2876 15.0703L10.147 10.9297V10.2656L9.9126 10.0312C8.92301 10.8906 7.75114 11.3203 6.39697 11.3203C4.88656 11.3203 3.59749 10.7995 2.52979 9.75781C1.48812 8.71615 0.967285 7.4401 0.967285 5.92969C0.967285 4.41927 1.48812 3.14323 2.52979 2.10156C3.59749 1.03385 4.88656 0.5 6.39697 0.5C7.90739 0.5 9.18343 1.03385 10.2251 2.10156C11.2668 3.14323 11.7876 4.41927 11.7876 5.92969C11.7876 6.47656 11.6574 7.10156 11.397 7.80469C11.1366 8.48177 10.8371 9.02865 10.4985 9.44531L10.7329 9.67969H11.397Z" fill="#343A40"/>
</svg>
